SplineFontDB: 3.0
FontName: FontName
FullName: FontName 
FamilyName: FontName
Weight: Medium
Copyright: generated by bdf-starter
UComments: "2015-10-9: Created." 
Version: 001.000
ItalicAngle: 0
UnderlinePosition: -100
UnderlineWidth: 50
Ascent: 800
Descent: 200
LayerCount: 2
Layer: 0 0 "Back"  1
Layer: 1 0 "Fore"  0
XUID: [1021 377 1322763916 7328023]
FSType: 0
OS2Version: 0
OS2_WeightWidthSlopeOnly: 0
OS2_UseTypoMetrics: 1
CreationTime: 1444380267
ModificationTime: 1444531481
OS2TypoAscent: 0
OS2TypoAOffset: 1
OS2TypoDescent: 0
OS2TypoDOffset: 1
OS2TypoLinegap: 90
OS2WinAscent: 0
OS2WinAOffset: 1
OS2WinDescent: 0
OS2WinDOffset: 1
HheadAscent: 0
HheadAOffset: 1
HheadDescent: 0
HheadDOffset: 1
DEI: 91125
Encoding: Custom
UnicodeInterp: (null)
NameList: Adobe Glyph List
DisplaySize: 16
AntiAlias: 1
FitToEm: 1
WinInfo: 16 16 8
BeginChars: 256 41

StartChar: char56
Encoding: 45 45 1
Width: 875
VWidth: 0
Flags: HW
LayerCount: 2
Back
Fore
SplineSet
250 237.5 m 1
 250 300 l 1
 187.5 300 l 1
 187.5 362.5 l 1
 250 362.5 l 1
 250 425 l 1
 312.5 425 l 1
 375 425 l 1
 437.5 425 l 1
 500 425 l 1
 562.5 425 l 1
 562.5 362.5 l 1
 625 362.5 l 1
 625 300 l 1
 562.5 300 l 1
 562.5 237.5 l 1
 500 237.5 l 1
 437.5 237.5 l 1
 375 237.5 l 1
 312.5 237.5 l 1
 250 237.5 l 1
EndSplineSet
Validated: 2621441
EndChar

StartChar: char56
Encoding: 46 46 2
Width: 875
VWidth: 0
Flags: HW
LayerCount: 2
Back
Fore
SplineSet
125 -200 m 1
 125 -137.5 l 1
 187.5 -137.5 l 1
 187.5 -75 l 1
 250 -75 l 1
 250 -12.5 l 1
 312.5 -12.5 l 1
 375 -12.5 l 1
 437.5 -12.5 l 1
 500 -12.5 l 1
 562.5 -12.5 l 1
 562.5 -75 l 1
 625 -75 l 1
 625 -137.5 l 1
 687.5 -137.5 l 1
 687.5 -200 l 1
 625 -200 l 1
 562.5 -200 l 1
 500 -200 l 1
 437.5 -200 l 1
 375 -200 l 1
 312.5 -200 l 1
 250 -200 l 1
 187.5 -200 l 1
 125 -200 l 1
EndSplineSet
Validated: 2621441
EndChar

StartChar: char48
Encoding: 48 48 3
Width: 875
VWidth: 0
Flags: HW
LayerCount: 2
Back
Fore
SplineSet
125 -200 m 1
 125 -137.5 l 1
 187.5 -137.5 l 1
 187.5 -75 l 1
 250 -75 l 1
 250 -12.5 l 1
 312.5 -12.5 l 1
 375 -12.5 l 1
 437.5 -12.5 l 1
 500 -12.5 l 1
 562.5 -12.5 l 1
 562.5 -75 l 1
 625 -75 l 1
 625 -137.5 l 1
 687.5 -137.5 l 1
 687.5 -200 l 1
 625 -200 l 1
 562.5 -200 l 1
 500 -200 l 1
 437.5 -200 l 1
 375 -200 l 1
 312.5 -200 l 1
 250 -200 l 1
 187.5 -200 l 1
 125 -200 l 1
62.5 -137.5 m 1
 62.5 -75 l 1
 62.5 -12.5 l 1
 62.5 50 l 1
 62.5 112.5 l 1
 62.5 175 l 1
 62.5 237.5 l 1
 62.5 300 l 1
 125 300 l 1
 187.5 300 l 1
 187.5 237.5 l 1
 250 237.5 l 1
 250 175 l 1
 250 112.5 l 1
 250 50 l 1
 250 -12.5 l 1
 187.5 -12.5 l 1
 187.5 -75 l 1
 125 -75 l 1
 125 -137.5 l 1
 62.5 -137.5 l 1
687.5 -137.5 m 1
 687.5 -75 l 1
 625 -75 l 1
 625 -12.5 l 1
 562.5 -12.5 l 1
 562.5 50 l 1
 562.5 112.5 l 1
 562.5 175 l 1
 562.5 237.5 l 1
 625 237.5 l 1
 625 300 l 1
 687.5 300 l 1
 750 300 l 1
 750 237.5 l 1
 750 175 l 1
 750 112.5 l 1
 750 50 l 1
 750 -12.5 l 1
 750 -75 l 1
 750 -137.5 l 1
 687.5 -137.5 l 1
62.5 362.5 m 1
 62.5 425 l 1
 62.5 487.5 l 1
 62.5 550 l 1
 62.5 612.5 l 1
 62.5 675 l 1
 62.5 737.5 l 1
 125 737.5 l 1
 125 675 l 1
 187.5 675 l 1
 187.5 612.5 l 1
 250 612.5 l 1
 250 550 l 1
 250 487.5 l 1
 250 425 l 1
 187.5 425 l 1
 187.5 362.5 l 1
 125 362.5 l 1
 62.5 362.5 l 1
625 362.5 m 1
 625 425 l 1
 562.5 425 l 1
 562.5 487.5 l 1
 562.5 550 l 1
 562.5 612.5 l 1
 625 612.5 l 1
 625 675 l 1
 687.5 675 l 1
 687.5 737.5 l 1
 750 737.5 l 1
 750 675 l 1
 750 612.5 l 1
 750 550 l 1
 750 487.5 l 1
 750 425 l 1
 750 362.5 l 1
 687.5 362.5 l 1
 625 362.5 l 1
250 612.5 m 1
 250 675 l 1
 187.5 675 l 1
 187.5 737.5 l 1
 125 737.5 l 1
 125 800 l 1
 187.5 800 l 1
 250 800 l 1
 312.5 800 l 1
 375 800 l 1
 437.5 800 l 1
 500 800 l 1
 562.5 800 l 1
 625 800 l 1
 687.5 800 l 1
 687.5 737.5 l 1
 625 737.5 l 1
 625 675 l 1
 562.5 675 l 1
 562.5 612.5 l 1
 500 612.5 l 1
 437.5 612.5 l 1
 375 612.5 l 1
 312.5 612.5 l 1
 250 612.5 l 1
EndSplineSet
Validated: 524293
EndChar

StartChar: char49
Encoding: 49 49 4
Width: 875
VWidth: 0
Flags: HW
LayerCount: 2
Back
Fore
SplineSet
687.5 -137.5 m 1
 687.5 -75 l 1
 625 -75 l 1
 625 -12.5 l 1
 562.5 -12.5 l 1
 562.5 50 l 1
 562.5 112.5 l 1
 562.5 175 l 1
 562.5 237.5 l 1
 625 237.5 l 1
 625 300 l 1
 687.5 300 l 1
 750 300 l 1
 750 237.5 l 1
 750 175 l 1
 750 112.5 l 1
 750 50 l 1
 750 -12.5 l 1
 750 -75 l 1
 750 -137.5 l 1
 687.5 -137.5 l 1
625 362.5 m 1
 625 425 l 1
 562.5 425 l 1
 562.5 487.5 l 1
 562.5 550 l 1
 562.5 612.5 l 1
 625 612.5 l 1
 625 675 l 1
 687.5 675 l 1
 687.5 737.5 l 1
 750 737.5 l 1
 750 675 l 1
 750 612.5 l 1
 750 550 l 1
 750 487.5 l 1
 750 425 l 1
 750 362.5 l 1
 687.5 362.5 l 1
 625 362.5 l 1
EndSplineSet
Validated: 524289
EndChar

StartChar: char50
Encoding: 50 50 5
Width: 875
VWidth: 0
Flags: HW
LayerCount: 2
Back
Fore
SplineSet
125 -200 m 1
 125 -137.5 l 1
 187.5 -137.5 l 1
 187.5 -75 l 1
 250 -75 l 1
 250 -12.5 l 1
 312.5 -12.5 l 1
 375 -12.5 l 1
 437.5 -12.5 l 1
 500 -12.5 l 1
 562.5 -12.5 l 1
 562.5 -75 l 1
 625 -75 l 1
 625 -137.5 l 1
 687.5 -137.5 l 1
 687.5 -200 l 1
 625 -200 l 1
 562.5 -200 l 1
 500 -200 l 1
 437.5 -200 l 1
 375 -200 l 1
 312.5 -200 l 1
 250 -200 l 1
 187.5 -200 l 1
 125 -200 l 1
62.5 -137.5 m 1
 62.5 -75 l 1
 62.5 -12.5 l 1
 62.5 50 l 1
 62.5 112.5 l 1
 62.5 175 l 1
 62.5 237.5 l 1
 62.5 300 l 1
 125 300 l 1
 187.5 300 l 1
 187.5 237.5 l 1
 250 237.5 l 1
 250 175 l 1
 250 112.5 l 1
 250 50 l 1
 250 -12.5 l 1
 187.5 -12.5 l 1
 187.5 -75 l 1
 125 -75 l 1
 125 -137.5 l 1
 62.5 -137.5 l 1
250 237.5 m 1
 250 300 l 1
 187.5 300 l 1
 187.5 362.5 l 1
 250 362.5 l 1
 250 425 l 1
 312.5 425 l 1
 375 425 l 1
 437.5 425 l 1
 500 425 l 1
 562.5 425 l 1
 562.5 362.5 l 1
 625 362.5 l 1
 625 300 l 1
 562.5 300 l 1
 562.5 237.5 l 1
 500 237.5 l 1
 437.5 237.5 l 1
 375 237.5 l 1
 312.5 237.5 l 1
 250 237.5 l 1
625 362.5 m 1
 625 425 l 1
 562.5 425 l 1
 562.5 487.5 l 1
 562.5 550 l 1
 562.5 612.5 l 1
 625 612.5 l 1
 625 675 l 1
 687.5 675 l 1
 687.5 737.5 l 1
 750 737.5 l 1
 750 675 l 1
 750 612.5 l 1
 750 550 l 1
 750 487.5 l 1
 750 425 l 1
 750 362.5 l 1
 687.5 362.5 l 1
 625 362.5 l 1
250 612.5 m 1
 250 675 l 1
 187.5 675 l 1
 187.5 737.5 l 1
 125 737.5 l 1
 125 800 l 1
 187.5 800 l 1
 250 800 l 1
 312.5 800 l 1
 375 800 l 1
 437.5 800 l 1
 500 800 l 1
 562.5 800 l 1
 625 800 l 1
 687.5 800 l 1
 687.5 737.5 l 1
 625 737.5 l 1
 625 675 l 1
 562.5 675 l 1
 562.5 612.5 l 1
 500 612.5 l 1
 437.5 612.5 l 1
 375 612.5 l 1
 312.5 612.5 l 1
 250 612.5 l 1
EndSplineSet
Validated: 524293
EndChar

StartChar: char51
Encoding: 51 51 6
Width: 875
VWidth: 0
Flags: HW
LayerCount: 2
Back
Fore
SplineSet
125 -200 m 1
 125 -137.5 l 1
 187.5 -137.5 l 1
 187.5 -75 l 1
 250 -75 l 1
 250 -12.5 l 1
 312.5 -12.5 l 1
 375 -12.5 l 1
 437.5 -12.5 l 1
 500 -12.5 l 1
 562.5 -12.5 l 1
 562.5 -75 l 1
 625 -75 l 1
 625 -137.5 l 1
 687.5 -137.5 l 1
 687.5 -200 l 1
 625 -200 l 1
 562.5 -200 l 1
 500 -200 l 1
 437.5 -200 l 1
 375 -200 l 1
 312.5 -200 l 1
 250 -200 l 1
 187.5 -200 l 1
 125 -200 l 1
687.5 -137.5 m 1
 687.5 -75 l 1
 625 -75 l 1
 625 -12.5 l 1
 562.5 -12.5 l 1
 562.5 50 l 1
 562.5 112.5 l 1
 562.5 175 l 1
 562.5 237.5 l 1
 625 237.5 l 1
 625 300 l 1
 687.5 300 l 1
 750 300 l 1
 750 237.5 l 1
 750 175 l 1
 750 112.5 l 1
 750 50 l 1
 750 -12.5 l 1
 750 -75 l 1
 750 -137.5 l 1
 687.5 -137.5 l 1
250 237.5 m 1
 250 300 l 1
 187.5 300 l 1
 187.5 362.5 l 1
 250 362.5 l 1
 250 425 l 1
 312.5 425 l 1
 375 425 l 1
 437.5 425 l 1
 500 425 l 1
 562.5 425 l 1
 562.5 362.5 l 1
 625 362.5 l 1
 625 300 l 1
 562.5 300 l 1
 562.5 237.5 l 1
 500 237.5 l 1
 437.5 237.5 l 1
 375 237.5 l 1
 312.5 237.5 l 1
 250 237.5 l 1
625 362.5 m 1
 625 425 l 1
 562.5 425 l 1
 562.5 487.5 l 1
 562.5 550 l 1
 562.5 612.5 l 1
 625 612.5 l 1
 625 675 l 1
 687.5 675 l 1
 687.5 737.5 l 1
 750 737.5 l 1
 750 675 l 1
 750 612.5 l 1
 750 550 l 1
 750 487.5 l 1
 750 425 l 1
 750 362.5 l 1
 687.5 362.5 l 1
 625 362.5 l 1
250 612.5 m 1
 250 675 l 1
 187.5 675 l 1
 187.5 737.5 l 1
 125 737.5 l 1
 125 800 l 1
 187.5 800 l 1
 250 800 l 1
 312.5 800 l 1
 375 800 l 1
 437.5 800 l 1
 500 800 l 1
 562.5 800 l 1
 625 800 l 1
 687.5 800 l 1
 687.5 737.5 l 1
 625 737.5 l 1
 625 675 l 1
 562.5 675 l 1
 562.5 612.5 l 1
 500 612.5 l 1
 437.5 612.5 l 1
 375 612.5 l 1
 312.5 612.5 l 1
 250 612.5 l 1
EndSplineSet
Validated: 524293
EndChar

StartChar: char52
Encoding: 52 52 7
Width: 875
VWidth: 0
Flags: HW
LayerCount: 2
Back
Fore
SplineSet
687.5 -137.5 m 1
 687.5 -75 l 1
 625 -75 l 1
 625 -12.5 l 1
 562.5 -12.5 l 1
 562.5 50 l 1
 562.5 112.5 l 1
 562.5 175 l 1
 562.5 237.5 l 1
 625 237.5 l 1
 625 300 l 1
 687.5 300 l 1
 750 300 l 1
 750 237.5 l 1
 750 175 l 1
 750 112.5 l 1
 750 50 l 1
 750 -12.5 l 1
 750 -75 l 1
 750 -137.5 l 1
 687.5 -137.5 l 1
250 237.5 m 1
 250 300 l 1
 187.5 300 l 1
 187.5 362.5 l 1
 250 362.5 l 1
 250 425 l 1
 312.5 425 l 1
 375 425 l 1
 437.5 425 l 1
 500 425 l 1
 562.5 425 l 1
 562.5 362.5 l 1
 625 362.5 l 1
 625 300 l 1
 562.5 300 l 1
 562.5 237.5 l 1
 500 237.5 l 1
 437.5 237.5 l 1
 375 237.5 l 1
 312.5 237.5 l 1
 250 237.5 l 1
62.5 362.5 m 1
 62.5 425 l 1
 62.5 487.5 l 1
 62.5 550 l 1
 62.5 612.5 l 1
 62.5 675 l 1
 62.5 737.5 l 1
 125 737.5 l 1
 125 675 l 1
 187.5 675 l 1
 187.5 612.5 l 1
 250 612.5 l 1
 250 550 l 1
 250 487.5 l 1
 250 425 l 1
 187.5 425 l 1
 187.5 362.5 l 1
 125 362.5 l 1
 62.5 362.5 l 1
625 362.5 m 1
 625 425 l 1
 562.5 425 l 1
 562.5 487.5 l 1
 562.5 550 l 1
 562.5 612.5 l 1
 625 612.5 l 1
 625 675 l 1
 687.5 675 l 1
 687.5 737.5 l 1
 750 737.5 l 1
 750 675 l 1
 750 612.5 l 1
 750 550 l 1
 750 487.5 l 1
 750 425 l 1
 750 362.5 l 1
 687.5 362.5 l 1
 625 362.5 l 1
EndSplineSet
Validated: 524293
EndChar

StartChar: char53
Encoding: 53 53 8
Width: 875
VWidth: 0
Flags: HW
LayerCount: 2
Back
Fore
SplineSet
125 -200 m 1
 125 -137.5 l 1
 187.5 -137.5 l 1
 187.5 -75 l 1
 250 -75 l 1
 250 -12.5 l 1
 312.5 -12.5 l 1
 375 -12.5 l 1
 437.5 -12.5 l 1
 500 -12.5 l 1
 562.5 -12.5 l 1
 562.5 -75 l 1
 625 -75 l 1
 625 -137.5 l 1
 687.5 -137.5 l 1
 687.5 -200 l 1
 625 -200 l 1
 562.5 -200 l 1
 500 -200 l 1
 437.5 -200 l 1
 375 -200 l 1
 312.5 -200 l 1
 250 -200 l 1
 187.5 -200 l 1
 125 -200 l 1
687.5 -137.5 m 1
 687.5 -75 l 1
 625 -75 l 1
 625 -12.5 l 1
 562.5 -12.5 l 1
 562.5 50 l 1
 562.5 112.5 l 1
 562.5 175 l 1
 562.5 237.5 l 1
 625 237.5 l 1
 625 300 l 1
 687.5 300 l 1
 750 300 l 1
 750 237.5 l 1
 750 175 l 1
 750 112.5 l 1
 750 50 l 1
 750 -12.5 l 1
 750 -75 l 1
 750 -137.5 l 1
 687.5 -137.5 l 1
250 237.5 m 1
 250 300 l 1
 187.5 300 l 1
 187.5 362.5 l 1
 250 362.5 l 1
 250 425 l 1
 312.5 425 l 1
 375 425 l 1
 437.5 425 l 1
 500 425 l 1
 562.5 425 l 1
 562.5 362.5 l 1
 625 362.5 l 1
 625 300 l 1
 562.5 300 l 1
 562.5 237.5 l 1
 500 237.5 l 1
 437.5 237.5 l 1
 375 237.5 l 1
 312.5 237.5 l 1
 250 237.5 l 1
62.5 362.5 m 1
 62.5 425 l 1
 62.5 487.5 l 1
 62.5 550 l 1
 62.5 612.5 l 1
 62.5 675 l 1
 62.5 737.5 l 1
 125 737.5 l 1
 125 675 l 1
 187.5 675 l 1
 187.5 612.5 l 1
 250 612.5 l 1
 250 550 l 1
 250 487.5 l 1
 250 425 l 1
 187.5 425 l 1
 187.5 362.5 l 1
 125 362.5 l 1
 62.5 362.5 l 1
250 612.5 m 1
 250 675 l 1
 187.5 675 l 1
 187.5 737.5 l 1
 125 737.5 l 1
 125 800 l 1
 187.5 800 l 1
 250 800 l 1
 312.5 800 l 1
 375 800 l 1
 437.5 800 l 1
 500 800 l 1
 562.5 800 l 1
 625 800 l 1
 687.5 800 l 1
 687.5 737.5 l 1
 625 737.5 l 1
 625 675 l 1
 562.5 675 l 1
 562.5 612.5 l 1
 500 612.5 l 1
 437.5 612.5 l 1
 375 612.5 l 1
 312.5 612.5 l 1
 250 612.5 l 1
EndSplineSet
Validated: 524293
EndChar

StartChar: char54
Encoding: 54 54 9
Width: 875
VWidth: 0
Flags: HW
LayerCount: 2
Back
Fore
SplineSet
125 -200 m 1
 125 -137.5 l 1
 187.5 -137.5 l 1
 187.5 -75 l 1
 250 -75 l 1
 250 -12.5 l 1
 312.5 -12.5 l 1
 375 -12.5 l 1
 437.5 -12.5 l 1
 500 -12.5 l 1
 562.5 -12.5 l 1
 562.5 -75 l 1
 625 -75 l 1
 625 -137.5 l 1
 687.5 -137.5 l 1
 687.5 -200 l 1
 625 -200 l 1
 562.5 -200 l 1
 500 -200 l 1
 437.5 -200 l 1
 375 -200 l 1
 312.5 -200 l 1
 250 -200 l 1
 187.5 -200 l 1
 125 -200 l 1
62.5 -137.5 m 1
 62.5 -75 l 1
 62.5 -12.5 l 1
 62.5 50 l 1
 62.5 112.5 l 1
 62.5 175 l 1
 62.5 237.5 l 1
 62.5 300 l 1
 125 300 l 1
 187.5 300 l 1
 187.5 237.5 l 1
 250 237.5 l 1
 250 175 l 1
 250 112.5 l 1
 250 50 l 1
 250 -12.5 l 1
 187.5 -12.5 l 1
 187.5 -75 l 1
 125 -75 l 1
 125 -137.5 l 1
 62.5 -137.5 l 1
687.5 -137.5 m 1
 687.5 -75 l 1
 625 -75 l 1
 625 -12.5 l 1
 562.5 -12.5 l 1
 562.5 50 l 1
 562.5 112.5 l 1
 562.5 175 l 1
 562.5 237.5 l 1
 625 237.5 l 1
 625 300 l 1
 687.5 300 l 1
 750 300 l 1
 750 237.5 l 1
 750 175 l 1
 750 112.5 l 1
 750 50 l 1
 750 -12.5 l 1
 750 -75 l 1
 750 -137.5 l 1
 687.5 -137.5 l 1
250 237.5 m 1
 250 300 l 1
 187.5 300 l 1
 187.5 362.5 l 1
 250 362.5 l 1
 250 425 l 1
 312.5 425 l 1
 375 425 l 1
 437.5 425 l 1
 500 425 l 1
 562.5 425 l 1
 562.5 362.5 l 1
 625 362.5 l 1
 625 300 l 1
 562.5 300 l 1
 562.5 237.5 l 1
 500 237.5 l 1
 437.5 237.5 l 1
 375 237.5 l 1
 312.5 237.5 l 1
 250 237.5 l 1
62.5 362.5 m 1
 62.5 425 l 1
 62.5 487.5 l 1
 62.5 550 l 1
 62.5 612.5 l 1
 62.5 675 l 1
 62.5 737.5 l 1
 125 737.5 l 1
 125 675 l 1
 187.5 675 l 1
 187.5 612.5 l 1
 250 612.5 l 1
 250 550 l 1
 250 487.5 l 1
 250 425 l 1
 187.5 425 l 1
 187.5 362.5 l 1
 125 362.5 l 1
 62.5 362.5 l 1
250 612.5 m 1
 250 675 l 1
 187.5 675 l 1
 187.5 737.5 l 1
 125 737.5 l 1
 125 800 l 1
 187.5 800 l 1
 250 800 l 1
 312.5 800 l 1
 375 800 l 1
 437.5 800 l 1
 500 800 l 1
 562.5 800 l 1
 625 800 l 1
 687.5 800 l 1
 687.5 737.5 l 1
 625 737.5 l 1
 625 675 l 1
 562.5 675 l 1
 562.5 612.5 l 1
 500 612.5 l 1
 437.5 612.5 l 1
 375 612.5 l 1
 312.5 612.5 l 1
 250 612.5 l 1
EndSplineSet
Validated: 524293
EndChar

StartChar: char55
Encoding: 55 55 10
Width: 875
VWidth: 0
Flags: HW
LayerCount: 2
Back
Fore
SplineSet
687.5 -137.5 m 1
 687.5 -75 l 1
 625 -75 l 1
 625 -12.5 l 1
 562.5 -12.5 l 1
 562.5 50 l 1
 562.5 112.5 l 1
 562.5 175 l 1
 562.5 237.5 l 1
 625 237.5 l 1
 625 300 l 1
 687.5 300 l 1
 750 300 l 1
 750 237.5 l 1
 750 175 l 1
 750 112.5 l 1
 750 50 l 1
 750 -12.5 l 1
 750 -75 l 1
 750 -137.5 l 1
 687.5 -137.5 l 1
62.5 362.5 m 1
 62.5 425 l 1
 62.5 487.5 l 1
 62.5 550 l 1
 62.5 612.5 l 1
 62.5 675 l 1
 62.5 737.5 l 1
 125 737.5 l 1
 125 675 l 1
 187.5 675 l 1
 187.5 612.5 l 1
 250 612.5 l 1
 250 550 l 1
 250 487.5 l 1
 250 425 l 1
 187.5 425 l 1
 187.5 362.5 l 1
 125 362.5 l 1
 62.5 362.5 l 1
625 362.5 m 1
 625 425 l 1
 562.5 425 l 1
 562.5 487.5 l 1
 562.5 550 l 1
 562.5 612.5 l 1
 625 612.5 l 1
 625 675 l 1
 687.5 675 l 1
 687.5 737.5 l 1
 750 737.5 l 1
 750 675 l 1
 750 612.5 l 1
 750 550 l 1
 750 487.5 l 1
 750 425 l 1
 750 362.5 l 1
 687.5 362.5 l 1
 625 362.5 l 1
250 612.5 m 1
 250 675 l 1
 187.5 675 l 1
 187.5 737.5 l 1
 125 737.5 l 1
 125 800 l 1
 187.5 800 l 1
 250 800 l 1
 312.5 800 l 1
 375 800 l 1
 437.5 800 l 1
 500 800 l 1
 562.5 800 l 1
 625 800 l 1
 687.5 800 l 1
 687.5 737.5 l 1
 625 737.5 l 1
 625 675 l 1
 562.5 675 l 1
 562.5 612.5 l 1
 500 612.5 l 1
 437.5 612.5 l 1
 375 612.5 l 1
 312.5 612.5 l 1
 250 612.5 l 1
EndSplineSet
Validated: 524293
EndChar

StartChar: char56
Encoding: 56 56 11
Width: 875
VWidth: 0
Flags: HW
LayerCount: 2
Back
Fore
SplineSet
125 -200 m 1
 125 -137.5 l 1
 187.5 -137.5 l 1
 187.5 -75 l 1
 250 -75 l 1
 250 -12.5 l 1
 312.5 -12.5 l 1
 375 -12.5 l 1
 437.5 -12.5 l 1
 500 -12.5 l 1
 562.5 -12.5 l 1
 562.5 -75 l 1
 625 -75 l 1
 625 -137.5 l 1
 687.5 -137.5 l 1
 687.5 -200 l 1
 625 -200 l 1
 562.5 -200 l 1
 500 -200 l 1
 437.5 -200 l 1
 375 -200 l 1
 312.5 -200 l 1
 250 -200 l 1
 187.5 -200 l 1
 125 -200 l 1
62.5 -137.5 m 1
 62.5 -75 l 1
 62.5 -12.5 l 1
 62.5 50 l 1
 62.5 112.5 l 1
 62.5 175 l 1
 62.5 237.5 l 1
 62.5 300 l 1
 125 300 l 1
 187.5 300 l 1
 187.5 237.5 l 1
 250 237.5 l 1
 250 175 l 1
 250 112.5 l 1
 250 50 l 1
 250 -12.5 l 1
 187.5 -12.5 l 1
 187.5 -75 l 1
 125 -75 l 1
 125 -137.5 l 1
 62.5 -137.5 l 1
687.5 -137.5 m 1
 687.5 -75 l 1
 625 -75 l 1
 625 -12.5 l 1
 562.5 -12.5 l 1
 562.5 50 l 1
 562.5 112.5 l 1
 562.5 175 l 1
 562.5 237.5 l 1
 625 237.5 l 1
 625 300 l 1
 687.5 300 l 1
 750 300 l 1
 750 237.5 l 1
 750 175 l 1
 750 112.5 l 1
 750 50 l 1
 750 -12.5 l 1
 750 -75 l 1
 750 -137.5 l 1
 687.5 -137.5 l 1
250 237.5 m 1
 250 300 l 1
 187.5 300 l 1
 187.5 362.5 l 1
 250 362.5 l 1
 250 425 l 1
 312.5 425 l 1
 375 425 l 1
 437.5 425 l 1
 500 425 l 1
 562.5 425 l 1
 562.5 362.5 l 1
 625 362.5 l 1
 625 300 l 1
 562.5 300 l 1
 562.5 237.5 l 1
 500 237.5 l 1
 437.5 237.5 l 1
 375 237.5 l 1
 312.5 237.5 l 1
 250 237.5 l 1
62.5 362.5 m 1
 62.5 425 l 1
 62.5 487.5 l 1
 62.5 550 l 1
 62.5 612.5 l 1
 62.5 675 l 1
 62.5 737.5 l 1
 125 737.5 l 1
 125 675 l 1
 187.5 675 l 1
 187.5 612.5 l 1
 250 612.5 l 1
 250 550 l 1
 250 487.5 l 1
 250 425 l 1
 187.5 425 l 1
 187.5 362.5 l 1
 125 362.5 l 1
 62.5 362.5 l 1
625 362.5 m 1
 625 425 l 1
 562.5 425 l 1
 562.5 487.5 l 1
 562.5 550 l 1
 562.5 612.5 l 1
 625 612.5 l 1
 625 675 l 1
 687.5 675 l 1
 687.5 737.5 l 1
 750 737.5 l 1
 750 675 l 1
 750 612.5 l 1
 750 550 l 1
 750 487.5 l 1
 750 425 l 1
 750 362.5 l 1
 687.5 362.5 l 1
 625 362.5 l 1
250 612.5 m 1
 250 675 l 1
 187.5 675 l 1
 187.5 737.5 l 1
 125 737.5 l 1
 125 800 l 1
 187.5 800 l 1
 250 800 l 1
 312.5 800 l 1
 375 800 l 1
 437.5 800 l 1
 500 800 l 1
 562.5 800 l 1
 625 800 l 1
 687.5 800 l 1
 687.5 737.5 l 1
 625 737.5 l 1
 625 675 l 1
 562.5 675 l 1
 562.5 612.5 l 1
 500 612.5 l 1
 437.5 612.5 l 1
 375 612.5 l 1
 312.5 612.5 l 1
 250 612.5 l 1
EndSplineSet
Validated: 2621445
EndChar

StartChar: char57
Encoding: 57 57 12
Width: 875
VWidth: 0
Flags: HW
LayerCount: 2
Back
Fore
SplineSet
125 -200 m 1
 125 -137.5 l 1
 187.5 -137.5 l 1
 187.5 -75 l 1
 250 -75 l 1
 250 -12.5 l 1
 312.5 -12.5 l 1
 375 -12.5 l 1
 437.5 -12.5 l 1
 500 -12.5 l 1
 562.5 -12.5 l 1
 562.5 -75 l 1
 625 -75 l 1
 625 -137.5 l 1
 687.5 -137.5 l 1
 687.5 -200 l 1
 625 -200 l 1
 562.5 -200 l 1
 500 -200 l 1
 437.5 -200 l 1
 375 -200 l 1
 312.5 -200 l 1
 250 -200 l 1
 187.5 -200 l 1
 125 -200 l 1
687.5 -137.5 m 1
 687.5 -75 l 1
 625 -75 l 1
 625 -12.5 l 1
 562.5 -12.5 l 1
 562.5 50 l 1
 562.5 112.5 l 1
 562.5 175 l 1
 562.5 237.5 l 1
 625 237.5 l 1
 625 300 l 1
 687.5 300 l 1
 750 300 l 1
 750 237.5 l 1
 750 175 l 1
 750 112.5 l 1
 750 50 l 1
 750 -12.5 l 1
 750 -75 l 1
 750 -137.5 l 1
 687.5 -137.5 l 1
250 237.5 m 1
 250 300 l 1
 187.5 300 l 1
 187.5 362.5 l 1
 250 362.5 l 1
 250 425 l 1
 312.5 425 l 1
 375 425 l 1
 437.5 425 l 1
 500 425 l 1
 562.5 425 l 1
 562.5 362.5 l 1
 625 362.5 l 1
 625 300 l 1
 562.5 300 l 1
 562.5 237.5 l 1
 500 237.5 l 1
 437.5 237.5 l 1
 375 237.5 l 1
 312.5 237.5 l 1
 250 237.5 l 1
62.5 362.5 m 1
 62.5 425 l 1
 62.5 487.5 l 1
 62.5 550 l 1
 62.5 612.5 l 1
 62.5 675 l 1
 62.5 737.5 l 1
 125 737.5 l 1
 125 675 l 1
 187.5 675 l 1
 187.5 612.5 l 1
 250 612.5 l 1
 250 550 l 1
 250 487.5 l 1
 250 425 l 1
 187.5 425 l 1
 187.5 362.5 l 1
 125 362.5 l 1
 62.5 362.5 l 1
625 362.5 m 1
 625 425 l 1
 562.5 425 l 1
 562.5 487.5 l 1
 562.5 550 l 1
 562.5 612.5 l 1
 625 612.5 l 1
 625 675 l 1
 687.5 675 l 1
 687.5 737.5 l 1
 750 737.5 l 1
 750 675 l 1
 750 612.5 l 1
 750 550 l 1
 750 487.5 l 1
 750 425 l 1
 750 362.5 l 1
 687.5 362.5 l 1
 625 362.5 l 1
250 612.5 m 1
 250 675 l 1
 187.5 675 l 1
 187.5 737.5 l 1
 125 737.5 l 1
 125 800 l 1
 187.5 800 l 1
 250 800 l 1
 312.5 800 l 1
 375 800 l 1
 437.5 800 l 1
 500 800 l 1
 562.5 800 l 1
 625 800 l 1
 687.5 800 l 1
 687.5 737.5 l 1
 625 737.5 l 1
 625 675 l 1
 562.5 675 l 1
 562.5 612.5 l 1
 500 612.5 l 1
 437.5 612.5 l 1
 375 612.5 l 1
 312.5 612.5 l 1
 250 612.5 l 1
EndSplineSet
Validated: 524293
EndChar

StartChar: char56
Encoding: 58 58 13
Width: 875
VWidth: 0
Flags: HW
LayerCount: 2
Back
Fore
SplineSet
125 -200 m 1
 125 -137.5 l 1
 187.5 -137.5 l 1
 187.5 -75 l 1
 250 -75 l 1
 250 -12.5 l 1
 312.5 -12.5 l 1
 375 -12.5 l 1
 437.5 -12.5 l 1
 500 -12.5 l 1
 562.5 -12.5 l 1
 562.5 -75 l 1
 625 -75 l 1
 625 -137.5 l 1
 687.5 -137.5 l 1
 687.5 -200 l 1
 625 -200 l 1
 562.5 -200 l 1
 500 -200 l 1
 437.5 -200 l 1
 375 -200 l 1
 312.5 -200 l 1
 250 -200 l 1
 187.5 -200 l 1
 125 -200 l 1
250 237.5 m 1
 250 300 l 1
 187.5 300 l 1
 187.5 362.5 l 1
 250 362.5 l 1
 250 425 l 1
 312.5 425 l 1
 375 425 l 1
 437.5 425 l 1
 500 425 l 1
 562.5 425 l 1
 562.5 362.5 l 1
 625 362.5 l 1
 625 300 l 1
 562.5 300 l 1
 562.5 237.5 l 1
 500 237.5 l 1
 437.5 237.5 l 1
 375 237.5 l 1
 312.5 237.5 l 1
 250 237.5 l 1
EndSplineSet
Validated: 2621441
EndChar

StartChar: char56
Encoding: 65 65 14
Width: 875
VWidth: 0
Flags: HW
LayerCount: 2
Back
Fore
SplineSet
62.5 -137.5 m 1
 62.5 -75 l 1
 62.5 -12.5 l 1
 62.5 50 l 1
 62.5 112.5 l 1
 62.5 175 l 1
 62.5 237.5 l 1
 62.5 300 l 1
 125 300 l 1
 187.5 300 l 1
 187.5 237.5 l 1
 250 237.5 l 1
 250 175 l 1
 250 112.5 l 1
 250 50 l 1
 250 -12.5 l 1
 187.5 -12.5 l 1
 187.5 -75 l 1
 125 -75 l 1
 125 -137.5 l 1
 62.5 -137.5 l 1
687.5 -137.5 m 1
 687.5 -75 l 1
 625 -75 l 1
 625 -12.5 l 1
 562.5 -12.5 l 1
 562.5 50 l 1
 562.5 112.5 l 1
 562.5 175 l 1
 562.5 237.5 l 1
 625 237.5 l 1
 625 300 l 1
 687.5 300 l 1
 750 300 l 1
 750 237.5 l 1
 750 175 l 1
 750 112.5 l 1
 750 50 l 1
 750 -12.5 l 1
 750 -75 l 1
 750 -137.5 l 1
 687.5 -137.5 l 1
250 237.5 m 1
 250 300 l 1
 187.5 300 l 1
 187.5 362.5 l 1
 250 362.5 l 1
 250 425 l 1
 312.5 425 l 1
 375 425 l 1
 437.5 425 l 1
 500 425 l 1
 562.5 425 l 1
 562.5 362.5 l 1
 625 362.5 l 1
 625 300 l 1
 562.5 300 l 1
 562.5 237.5 l 1
 500 237.5 l 1
 437.5 237.5 l 1
 375 237.5 l 1
 312.5 237.5 l 1
 250 237.5 l 1
62.5 362.5 m 1
 62.5 425 l 1
 62.5 487.5 l 1
 62.5 550 l 1
 62.5 612.5 l 1
 62.5 675 l 1
 62.5 737.5 l 1
 125 737.5 l 1
 125 675 l 1
 187.5 675 l 1
 187.5 612.5 l 1
 250 612.5 l 1
 250 550 l 1
 250 487.5 l 1
 250 425 l 1
 187.5 425 l 1
 187.5 362.5 l 1
 125 362.5 l 1
 62.5 362.5 l 1
625 362.5 m 1
 625 425 l 1
 562.5 425 l 1
 562.5 487.5 l 1
 562.5 550 l 1
 562.5 612.5 l 1
 625 612.5 l 1
 625 675 l 1
 687.5 675 l 1
 687.5 737.5 l 1
 750 737.5 l 1
 750 675 l 1
 750 612.5 l 1
 750 550 l 1
 750 487.5 l 1
 750 425 l 1
 750 362.5 l 1
 687.5 362.5 l 1
 625 362.5 l 1
250 612.5 m 1
 250 675 l 1
 187.5 675 l 1
 187.5 737.5 l 1
 125 737.5 l 1
 125 800 l 1
 187.5 800 l 1
 250 800 l 1
 312.5 800 l 1
 375 800 l 1
 437.5 800 l 1
 500 800 l 1
 562.5 800 l 1
 625 800 l 1
 687.5 800 l 1
 687.5 737.5 l 1
 625 737.5 l 1
 625 675 l 1
 562.5 675 l 1
 562.5 612.5 l 1
 500 612.5 l 1
 437.5 612.5 l 1
 375 612.5 l 1
 312.5 612.5 l 1
 250 612.5 l 1
EndSplineSet
Validated: 2621445
EndChar

StartChar: char56
Encoding: 66 66 15
Width: 875
VWidth: 0
Flags: HW
LayerCount: 2
Back
Fore
SplineSet
125 -200 m 1
 125 -137.5 l 1
 187.5 -137.5 l 1
 187.5 -75 l 1
 250 -75 l 1
 250 -12.5 l 1
 312.5 -12.5 l 1
 375 -12.5 l 1
 437.5 -12.5 l 1
 500 -12.5 l 1
 562.5 -12.5 l 1
 562.5 -75 l 1
 625 -75 l 1
 625 -137.5 l 1
 687.5 -137.5 l 1
 687.5 -200 l 1
 625 -200 l 1
 562.5 -200 l 1
 500 -200 l 1
 437.5 -200 l 1
 375 -200 l 1
 312.5 -200 l 1
 250 -200 l 1
 187.5 -200 l 1
 125 -200 l 1
62.5 -137.5 m 1
 62.5 -75 l 1
 62.5 -12.5 l 1
 62.5 50 l 1
 62.5 112.5 l 1
 62.5 175 l 1
 62.5 237.5 l 1
 62.5 300 l 1
 125 300 l 1
 187.5 300 l 1
 187.5 237.5 l 1
 250 237.5 l 1
 250 175 l 1
 250 112.5 l 1
 250 50 l 1
 250 -12.5 l 1
 187.5 -12.5 l 1
 187.5 -75 l 1
 125 -75 l 1
 125 -137.5 l 1
 62.5 -137.5 l 1
687.5 -137.5 m 1
 687.5 -75 l 1
 625 -75 l 1
 625 -12.5 l 1
 562.5 -12.5 l 1
 562.5 50 l 1
 562.5 112.5 l 1
 562.5 175 l 1
 562.5 237.5 l 1
 625 237.5 l 1
 625 300 l 1
 687.5 300 l 1
 750 300 l 1
 750 237.5 l 1
 750 175 l 1
 750 112.5 l 1
 750 50 l 1
 750 -12.5 l 1
 750 -75 l 1
 750 -137.5 l 1
 687.5 -137.5 l 1
250 237.5 m 1
 250 300 l 1
 187.5 300 l 1
 187.5 362.5 l 1
 250 362.5 l 1
 250 425 l 1
 312.5 425 l 1
 375 425 l 1
 437.5 425 l 1
 500 425 l 1
 562.5 425 l 1
 562.5 362.5 l 1
 625 362.5 l 1
 625 300 l 1
 562.5 300 l 1
 562.5 237.5 l 1
 500 237.5 l 1
 437.5 237.5 l 1
 375 237.5 l 1
 312.5 237.5 l 1
 250 237.5 l 1
62.5 362.5 m 1
 62.5 425 l 1
 62.5 487.5 l 1
 62.5 550 l 1
 62.5 612.5 l 1
 62.5 675 l 1
 62.5 737.5 l 1
 125 737.5 l 1
 125 675 l 1
 187.5 675 l 1
 187.5 612.5 l 1
 250 612.5 l 1
 250 550 l 1
 250 487.5 l 1
 250 425 l 1
 187.5 425 l 1
 187.5 362.5 l 1
 125 362.5 l 1
 62.5 362.5 l 1
EndSplineSet
Validated: 2621445
EndChar

StartChar: char56
Encoding: 67 67 16
Width: 875
VWidth: 0
Flags: HW
LayerCount: 2
Back
Fore
SplineSet
125 -200 m 1
 125 -137.5 l 1
 187.5 -137.5 l 1
 187.5 -75 l 1
 250 -75 l 1
 250 -12.5 l 1
 312.5 -12.5 l 1
 375 -12.5 l 1
 437.5 -12.5 l 1
 500 -12.5 l 1
 562.5 -12.5 l 1
 562.5 -75 l 1
 625 -75 l 1
 625 -137.5 l 1
 687.5 -137.5 l 1
 687.5 -200 l 1
 625 -200 l 1
 562.5 -200 l 1
 500 -200 l 1
 437.5 -200 l 1
 375 -200 l 1
 312.5 -200 l 1
 250 -200 l 1
 187.5 -200 l 1
 125 -200 l 1
62.5 -137.5 m 1
 62.5 -75 l 1
 62.5 -12.5 l 1
 62.5 50 l 1
 62.5 112.5 l 1
 62.5 175 l 1
 62.5 237.5 l 1
 62.5 300 l 1
 125 300 l 1
 187.5 300 l 1
 187.5 237.5 l 1
 250 237.5 l 1
 250 175 l 1
 250 112.5 l 1
 250 50 l 1
 250 -12.5 l 1
 187.5 -12.5 l 1
 187.5 -75 l 1
 125 -75 l 1
 125 -137.5 l 1
 62.5 -137.5 l 1
62.5 362.5 m 1
 62.5 425 l 1
 62.5 487.5 l 1
 62.5 550 l 1
 62.5 612.5 l 1
 62.5 675 l 1
 62.5 737.5 l 1
 125 737.5 l 1
 125 675 l 1
 187.5 675 l 1
 187.5 612.5 l 1
 250 612.5 l 1
 250 550 l 1
 250 487.5 l 1
 250 425 l 1
 187.5 425 l 1
 187.5 362.5 l 1
 125 362.5 l 1
 62.5 362.5 l 1
250 612.5 m 1
 250 675 l 1
 187.5 675 l 1
 187.5 737.5 l 1
 125 737.5 l 1
 125 800 l 1
 187.5 800 l 1
 250 800 l 1
 312.5 800 l 1
 375 800 l 1
 437.5 800 l 1
 500 800 l 1
 562.5 800 l 1
 625 800 l 1
 687.5 800 l 1
 687.5 737.5 l 1
 625 737.5 l 1
 625 675 l 1
 562.5 675 l 1
 562.5 612.5 l 1
 500 612.5 l 1
 437.5 612.5 l 1
 375 612.5 l 1
 312.5 612.5 l 1
 250 612.5 l 1
EndSplineSet
Validated: 2621445
EndChar

StartChar: char56
Encoding: 68 68 17
Width: 875
VWidth: 0
Flags: HW
LayerCount: 2
Back
Fore
SplineSet
125 -200 m 1
 125 -137.5 l 1
 187.5 -137.5 l 1
 187.5 -75 l 1
 250 -75 l 1
 250 -12.5 l 1
 312.5 -12.5 l 1
 375 -12.5 l 1
 437.5 -12.5 l 1
 500 -12.5 l 1
 562.5 -12.5 l 1
 562.5 -75 l 1
 625 -75 l 1
 625 -137.5 l 1
 687.5 -137.5 l 1
 687.5 -200 l 1
 625 -200 l 1
 562.5 -200 l 1
 500 -200 l 1
 437.5 -200 l 1
 375 -200 l 1
 312.5 -200 l 1
 250 -200 l 1
 187.5 -200 l 1
 125 -200 l 1
62.5 -137.5 m 1
 62.5 -75 l 1
 62.5 -12.5 l 1
 62.5 50 l 1
 62.5 112.5 l 1
 62.5 175 l 1
 62.5 237.5 l 1
 62.5 300 l 1
 125 300 l 1
 187.5 300 l 1
 187.5 237.5 l 1
 250 237.5 l 1
 250 175 l 1
 250 112.5 l 1
 250 50 l 1
 250 -12.5 l 1
 187.5 -12.5 l 1
 187.5 -75 l 1
 125 -75 l 1
 125 -137.5 l 1
 62.5 -137.5 l 1
687.5 -137.5 m 1
 687.5 -75 l 1
 625 -75 l 1
 625 -12.5 l 1
 562.5 -12.5 l 1
 562.5 50 l 1
 562.5 112.5 l 1
 562.5 175 l 1
 562.5 237.5 l 1
 625 237.5 l 1
 625 300 l 1
 687.5 300 l 1
 750 300 l 1
 750 237.5 l 1
 750 175 l 1
 750 112.5 l 1
 750 50 l 1
 750 -12.5 l 1
 750 -75 l 1
 750 -137.5 l 1
 687.5 -137.5 l 1
250 237.5 m 1
 250 300 l 1
 187.5 300 l 1
 187.5 362.5 l 1
 250 362.5 l 1
 250 425 l 1
 312.5 425 l 1
 375 425 l 1
 437.5 425 l 1
 500 425 l 1
 562.5 425 l 1
 562.5 362.5 l 1
 625 362.5 l 1
 625 300 l 1
 562.5 300 l 1
 562.5 237.5 l 1
 500 237.5 l 1
 437.5 237.5 l 1
 375 237.5 l 1
 312.5 237.5 l 1
 250 237.5 l 1
625 362.5 m 1
 625 425 l 1
 562.5 425 l 1
 562.5 487.5 l 1
 562.5 550 l 1
 562.5 612.5 l 1
 625 612.5 l 1
 625 675 l 1
 687.5 675 l 1
 687.5 737.5 l 1
 750 737.5 l 1
 750 675 l 1
 750 612.5 l 1
 750 550 l 1
 750 487.5 l 1
 750 425 l 1
 750 362.5 l 1
 687.5 362.5 l 1
 625 362.5 l 1
EndSplineSet
Validated: 2621445
EndChar

StartChar: char56
Encoding: 69 69 18
Width: 875
VWidth: 0
Flags: HW
LayerCount: 2
Back
Fore
SplineSet
125 -200 m 1
 125 -137.5 l 1
 187.5 -137.5 l 1
 187.5 -75 l 1
 250 -75 l 1
 250 -12.5 l 1
 312.5 -12.5 l 1
 375 -12.5 l 1
 437.5 -12.5 l 1
 500 -12.5 l 1
 562.5 -12.5 l 1
 562.5 -75 l 1
 625 -75 l 1
 625 -137.5 l 1
 687.5 -137.5 l 1
 687.5 -200 l 1
 625 -200 l 1
 562.5 -200 l 1
 500 -200 l 1
 437.5 -200 l 1
 375 -200 l 1
 312.5 -200 l 1
 250 -200 l 1
 187.5 -200 l 1
 125 -200 l 1
62.5 -137.5 m 1
 62.5 -75 l 1
 62.5 -12.5 l 1
 62.5 50 l 1
 62.5 112.5 l 1
 62.5 175 l 1
 62.5 237.5 l 1
 62.5 300 l 1
 125 300 l 1
 187.5 300 l 1
 187.5 237.5 l 1
 250 237.5 l 1
 250 175 l 1
 250 112.5 l 1
 250 50 l 1
 250 -12.5 l 1
 187.5 -12.5 l 1
 187.5 -75 l 1
 125 -75 l 1
 125 -137.5 l 1
 62.5 -137.5 l 1
250 237.5 m 1
 250 300 l 1
 187.5 300 l 1
 187.5 362.5 l 1
 250 362.5 l 1
 250 425 l 1
 312.5 425 l 1
 375 425 l 1
 437.5 425 l 1
 500 425 l 1
 562.5 425 l 1
 562.5 362.5 l 1
 625 362.5 l 1
 625 300 l 1
 562.5 300 l 1
 562.5 237.5 l 1
 500 237.5 l 1
 437.5 237.5 l 1
 375 237.5 l 1
 312.5 237.5 l 1
 250 237.5 l 1
62.5 362.5 m 1
 62.5 425 l 1
 62.5 487.5 l 1
 62.5 550 l 1
 62.5 612.5 l 1
 62.5 675 l 1
 62.5 737.5 l 1
 125 737.5 l 1
 125 675 l 1
 187.5 675 l 1
 187.5 612.5 l 1
 250 612.5 l 1
 250 550 l 1
 250 487.5 l 1
 250 425 l 1
 187.5 425 l 1
 187.5 362.5 l 1
 125 362.5 l 1
 62.5 362.5 l 1
250 612.5 m 1
 250 675 l 1
 187.5 675 l 1
 187.5 737.5 l 1
 125 737.5 l 1
 125 800 l 1
 187.5 800 l 1
 250 800 l 1
 312.5 800 l 1
 375 800 l 1
 437.5 800 l 1
 500 800 l 1
 562.5 800 l 1
 625 800 l 1
 687.5 800 l 1
 687.5 737.5 l 1
 625 737.5 l 1
 625 675 l 1
 562.5 675 l 1
 562.5 612.5 l 1
 500 612.5 l 1
 437.5 612.5 l 1
 375 612.5 l 1
 312.5 612.5 l 1
 250 612.5 l 1
EndSplineSet
Validated: 2621445
EndChar

StartChar: char56
Encoding: 70 70 19
Width: 875
VWidth: 0
Flags: HW
LayerCount: 2
Back
Fore
SplineSet
62.5 -137.5 m 1
 62.5 -75 l 1
 62.5 -12.5 l 1
 62.5 50 l 1
 62.5 112.5 l 1
 62.5 175 l 1
 62.5 237.5 l 1
 62.5 300 l 1
 125 300 l 1
 187.5 300 l 1
 187.5 237.5 l 1
 250 237.5 l 1
 250 175 l 1
 250 112.5 l 1
 250 50 l 1
 250 -12.5 l 1
 187.5 -12.5 l 1
 187.5 -75 l 1
 125 -75 l 1
 125 -137.5 l 1
 62.5 -137.5 l 1
250 237.5 m 1
 250 300 l 1
 187.5 300 l 1
 187.5 362.5 l 1
 250 362.5 l 1
 250 425 l 1
 312.5 425 l 1
 375 425 l 1
 437.5 425 l 1
 500 425 l 1
 562.5 425 l 1
 562.5 362.5 l 1
 625 362.5 l 1
 625 300 l 1
 562.5 300 l 1
 562.5 237.5 l 1
 500 237.5 l 1
 437.5 237.5 l 1
 375 237.5 l 1
 312.5 237.5 l 1
 250 237.5 l 1
62.5 362.5 m 1
 62.5 425 l 1
 62.5 487.5 l 1
 62.5 550 l 1
 62.5 612.5 l 1
 62.5 675 l 1
 62.5 737.5 l 1
 125 737.5 l 1
 125 675 l 1
 187.5 675 l 1
 187.5 612.5 l 1
 250 612.5 l 1
 250 550 l 1
 250 487.5 l 1
 250 425 l 1
 187.5 425 l 1
 187.5 362.5 l 1
 125 362.5 l 1
 62.5 362.5 l 1
250 612.5 m 1
 250 675 l 1
 187.5 675 l 1
 187.5 737.5 l 1
 125 737.5 l 1
 125 800 l 1
 187.5 800 l 1
 250 800 l 1
 312.5 800 l 1
 375 800 l 1
 437.5 800 l 1
 500 800 l 1
 562.5 800 l 1
 625 800 l 1
 687.5 800 l 1
 687.5 737.5 l 1
 625 737.5 l 1
 625 675 l 1
 562.5 675 l 1
 562.5 612.5 l 1
 500 612.5 l 1
 437.5 612.5 l 1
 375 612.5 l 1
 312.5 612.5 l 1
 250 612.5 l 1
EndSplineSet
Validated: 2621445
EndChar

StartChar: char56
Encoding: 71 71 20
Width: 875
VWidth: 0
Flags: HW
LayerCount: 2
Back
Fore
SplineSet
125 -200 m 1
 125 -137.5 l 1
 187.5 -137.5 l 1
 187.5 -75 l 1
 250 -75 l 1
 250 -12.5 l 1
 312.5 -12.5 l 1
 375 -12.5 l 1
 437.5 -12.5 l 1
 500 -12.5 l 1
 562.5 -12.5 l 1
 562.5 -75 l 1
 625 -75 l 1
 625 -137.5 l 1
 687.5 -137.5 l 1
 687.5 -200 l 1
 625 -200 l 1
 562.5 -200 l 1
 500 -200 l 1
 437.5 -200 l 1
 375 -200 l 1
 312.5 -200 l 1
 250 -200 l 1
 187.5 -200 l 1
 125 -200 l 1
62.5 -137.5 m 1
 62.5 -75 l 1
 62.5 -12.5 l 1
 62.5 50 l 1
 62.5 112.5 l 1
 62.5 175 l 1
 62.5 237.5 l 1
 62.5 300 l 1
 125 300 l 1
 187.5 300 l 1
 187.5 237.5 l 1
 250 237.5 l 1
 250 175 l 1
 250 112.5 l 1
 250 50 l 1
 250 -12.5 l 1
 187.5 -12.5 l 1
 187.5 -75 l 1
 125 -75 l 1
 125 -137.5 l 1
 62.5 -137.5 l 1
687.5 -137.5 m 1
 687.5 -75 l 1
 625 -75 l 1
 625 -12.5 l 1
 562.5 -12.5 l 1
 562.5 50 l 1
 562.5 112.5 l 1
 562.5 175 l 1
 562.5 237.5 l 1
 625 237.5 l 1
 625 300 l 1
 687.5 300 l 1
 750 300 l 1
 750 237.5 l 1
 750 175 l 1
 750 112.5 l 1
 750 50 l 1
 750 -12.5 l 1
 750 -75 l 1
 750 -137.5 l 1
 687.5 -137.5 l 1
62.5 362.5 m 1
 62.5 425 l 1
 62.5 487.5 l 1
 62.5 550 l 1
 62.5 612.5 l 1
 62.5 675 l 1
 62.5 737.5 l 1
 125 737.5 l 1
 125 675 l 1
 187.5 675 l 1
 187.5 612.5 l 1
 250 612.5 l 1
 250 550 l 1
 250 487.5 l 1
 250 425 l 1
 187.5 425 l 1
 187.5 362.5 l 1
 125 362.5 l 1
 62.5 362.5 l 1
250 612.5 m 1
 250 675 l 1
 187.5 675 l 1
 187.5 737.5 l 1
 125 737.5 l 1
 125 800 l 1
 187.5 800 l 1
 250 800 l 1
 312.5 800 l 1
 375 800 l 1
 437.5 800 l 1
 500 800 l 1
 562.5 800 l 1
 625 800 l 1
 687.5 800 l 1
 687.5 737.5 l 1
 625 737.5 l 1
 625 675 l 1
 562.5 675 l 1
 562.5 612.5 l 1
 500 612.5 l 1
 437.5 612.5 l 1
 375 612.5 l 1
 312.5 612.5 l 1
 250 612.5 l 1
EndSplineSet
Validated: 2621445
EndChar

StartChar: char56
Encoding: 72 72 21
Width: 875
VWidth: 0
Flags: HW
LayerCount: 2
Back
Fore
SplineSet
62.5 -137.5 m 1
 62.5 -75 l 1
 62.5 -12.5 l 1
 62.5 50 l 1
 62.5 112.5 l 1
 62.5 175 l 1
 62.5 237.5 l 1
 62.5 300 l 1
 125 300 l 1
 187.5 300 l 1
 187.5 237.5 l 1
 250 237.5 l 1
 250 175 l 1
 250 112.5 l 1
 250 50 l 1
 250 -12.5 l 1
 187.5 -12.5 l 1
 187.5 -75 l 1
 125 -75 l 1
 125 -137.5 l 1
 62.5 -137.5 l 1
687.5 -137.5 m 1
 687.5 -75 l 1
 625 -75 l 1
 625 -12.5 l 1
 562.5 -12.5 l 1
 562.5 50 l 1
 562.5 112.5 l 1
 562.5 175 l 1
 562.5 237.5 l 1
 625 237.5 l 1
 625 300 l 1
 687.5 300 l 1
 750 300 l 1
 750 237.5 l 1
 750 175 l 1
 750 112.5 l 1
 750 50 l 1
 750 -12.5 l 1
 750 -75 l 1
 750 -137.5 l 1
 687.5 -137.5 l 1
250 237.5 m 1
 250 300 l 1
 187.5 300 l 1
 187.5 362.5 l 1
 250 362.5 l 1
 250 425 l 1
 312.5 425 l 1
 375 425 l 1
 437.5 425 l 1
 500 425 l 1
 562.5 425 l 1
 562.5 362.5 l 1
 625 362.5 l 1
 625 300 l 1
 562.5 300 l 1
 562.5 237.5 l 1
 500 237.5 l 1
 437.5 237.5 l 1
 375 237.5 l 1
 312.5 237.5 l 1
 250 237.5 l 1
62.5 362.5 m 1
 62.5 425 l 1
 62.5 487.5 l 1
 62.5 550 l 1
 62.5 612.5 l 1
 62.5 675 l 1
 62.5 737.5 l 1
 125 737.5 l 1
 125 675 l 1
 187.5 675 l 1
 187.5 612.5 l 1
 250 612.5 l 1
 250 550 l 1
 250 487.5 l 1
 250 425 l 1
 187.5 425 l 1
 187.5 362.5 l 1
 125 362.5 l 1
 62.5 362.5 l 1
625 362.5 m 1
 625 425 l 1
 562.5 425 l 1
 562.5 487.5 l 1
 562.5 550 l 1
 562.5 612.5 l 1
 625 612.5 l 1
 625 675 l 1
 687.5 675 l 1
 687.5 737.5 l 1
 750 737.5 l 1
 750 675 l 1
 750 612.5 l 1
 750 550 l 1
 750 487.5 l 1
 750 425 l 1
 750 362.5 l 1
 687.5 362.5 l 1
 625 362.5 l 1
EndSplineSet
Validated: 2621445
EndChar

StartChar: char56
Encoding: 73 73 22
Width: 875
VWidth: 0
Flags: HW
LayerCount: 2
Back
Fore
SplineSet
125 -200 m 1
 125 -137.5 l 1
 187.5 -137.5 l 1
 187.5 -75 l 1
 250 -75 l 1
 250 -12.5 l 1
 312.5 -12.5 l 1
 375 -12.5 l 1
 437.5 -12.5 l 1
 500 -12.5 l 1
 562.5 -12.5 l 1
 562.5 -75 l 1
 625 -75 l 1
 625 -137.5 l 1
 687.5 -137.5 l 1
 687.5 -200 l 1
 625 -200 l 1
 562.5 -200 l 1
 500 -200 l 1
 437.5 -200 l 1
 375 -200 l 1
 312.5 -200 l 1
 250 -200 l 1
 187.5 -200 l 1
 125 -200 l 1
312.5 50 m 1
 312.5 112.5 l 1
 312.5 175 l 1
 312.5 237.5 l 1
 375 237.5 l 1
 437.5 237.5 l 1
 500 237.5 l 1
 500 175 l 1
 500 112.5 l 1
 500 50 l 1
 437.5 50 l 1
 375 50 l 1
 312.5 50 l 1
312.5 425 m 1
 312.5 487.5 l 1
 312.5 550 l 1
 375 550 l 1
 437.5 550 l 1
 500 550 l 1
 500 487.5 l 1
 500 425 l 1
 437.5 425 l 1
 375 425 l 1
 312.5 425 l 1
250 612.5 m 1
 250 675 l 1
 187.5 675 l 1
 187.5 737.5 l 1
 125 737.5 l 1
 125 800 l 1
 187.5 800 l 1
 250 800 l 1
 312.5 800 l 1
 375 800 l 1
 437.5 800 l 1
 500 800 l 1
 562.5 800 l 1
 625 800 l 1
 687.5 800 l 1
 687.5 737.5 l 1
 625 737.5 l 1
 625 675 l 1
 562.5 675 l 1
 562.5 612.5 l 1
 500 612.5 l 1
 437.5 612.5 l 1
 375 612.5 l 1
 312.5 612.5 l 1
 250 612.5 l 1
EndSplineSet
Validated: 2621441
EndChar

StartChar: char56
Encoding: 74 74 23
Width: 875
VWidth: 0
Flags: HW
LayerCount: 2
Back
Fore
SplineSet
125 -200 m 1
 125 -137.5 l 1
 187.5 -137.5 l 1
 187.5 -75 l 1
 250 -75 l 1
 250 -12.5 l 1
 312.5 -12.5 l 1
 375 -12.5 l 1
 437.5 -12.5 l 1
 500 -12.5 l 1
 562.5 -12.5 l 1
 562.5 -75 l 1
 625 -75 l 1
 625 -137.5 l 1
 687.5 -137.5 l 1
 687.5 -200 l 1
 625 -200 l 1
 562.5 -200 l 1
 500 -200 l 1
 437.5 -200 l 1
 375 -200 l 1
 312.5 -200 l 1
 250 -200 l 1
 187.5 -200 l 1
 125 -200 l 1
62.5 -137.5 m 1
 62.5 -75 l 1
 62.5 -12.5 l 1
 62.5 50 l 1
 62.5 112.5 l 1
 62.5 175 l 1
 62.5 237.5 l 1
 62.5 300 l 1
 125 300 l 1
 187.5 300 l 1
 187.5 237.5 l 1
 250 237.5 l 1
 250 175 l 1
 250 112.5 l 1
 250 50 l 1
 250 -12.5 l 1
 187.5 -12.5 l 1
 187.5 -75 l 1
 125 -75 l 1
 125 -137.5 l 1
 62.5 -137.5 l 1
687.5 -137.5 m 1
 687.5 -75 l 1
 625 -75 l 1
 625 -12.5 l 1
 562.5 -12.5 l 1
 562.5 50 l 1
 562.5 112.5 l 1
 562.5 175 l 1
 562.5 237.5 l 1
 625 237.5 l 1
 625 300 l 1
 687.5 300 l 1
 750 300 l 1
 750 237.5 l 1
 750 175 l 1
 750 112.5 l 1
 750 50 l 1
 750 -12.5 l 1
 750 -75 l 1
 750 -137.5 l 1
 687.5 -137.5 l 1
625 362.5 m 1
 625 425 l 1
 562.5 425 l 1
 562.5 487.5 l 1
 562.5 550 l 1
 562.5 612.5 l 1
 625 612.5 l 1
 625 675 l 1
 687.5 675 l 1
 687.5 737.5 l 1
 750 737.5 l 1
 750 675 l 1
 750 612.5 l 1
 750 550 l 1
 750 487.5 l 1
 750 425 l 1
 750 362.5 l 1
 687.5 362.5 l 1
 625 362.5 l 1
EndSplineSet
Validated: 2621445
EndChar

StartChar: char56
Encoding: 75 75 24
Width: 875
VWidth: 0
Flags: HW
LayerCount: 2
Back
Fore
SplineSet
62.5 -137.5 m 1
 62.5 -75 l 1
 62.5 -12.5 l 1
 62.5 50 l 1
 62.5 112.5 l 1
 62.5 175 l 1
 62.5 237.5 l 1
 62.5 300 l 1
 125 300 l 1
 187.5 300 l 1
 187.5 237.5 l 1
 250 237.5 l 1
 250 175 l 1
 250 112.5 l 1
 250 50 l 1
 250 -12.5 l 1
 187.5 -12.5 l 1
 187.5 -75 l 1
 125 -75 l 1
 125 -137.5 l 1
 62.5 -137.5 l 1
687.5 -137.5 m 1
 687.5 -75 l 1
 625 -75 l 1
 625 -12.5 l 1
 562.5 -12.5 l 1
 562.5 50 l 1
 562.5 112.5 l 1
 562.5 175 l 1
 562.5 237.5 l 1
 625 237.5 l 1
 625 300 l 1
 687.5 300 l 1
 750 300 l 1
 750 237.5 l 1
 750 175 l 1
 750 112.5 l 1
 750 50 l 1
 750 -12.5 l 1
 750 -75 l 1
 750 -137.5 l 1
 687.5 -137.5 l 1
250 237.5 m 1
 250 300 l 1
 187.5 300 l 1
 187.5 362.5 l 1
 250 362.5 l 1
 250 425 l 1
 312.5 425 l 1
 375 425 l 1
 437.5 425 l 1
 500 425 l 1
 562.5 425 l 1
 562.5 362.5 l 1
 625 362.5 l 1
 625 300 l 1
 562.5 300 l 1
 562.5 237.5 l 1
 500 237.5 l 1
 437.5 237.5 l 1
 375 237.5 l 1
 312.5 237.5 l 1
 250 237.5 l 1
62.5 362.5 m 1
 62.5 425 l 1
 62.5 487.5 l 1
 62.5 550 l 1
 62.5 612.5 l 1
 62.5 675 l 1
 62.5 737.5 l 1
 125 737.5 l 1
 125 675 l 1
 187.5 675 l 1
 187.5 612.5 l 1
 250 612.5 l 1
 250 550 l 1
 250 487.5 l 1
 250 425 l 1
 187.5 425 l 1
 187.5 362.5 l 1
 125 362.5 l 1
 62.5 362.5 l 1
375 487.5 m 1
 375 550 l 1
 437.5 550 l 1
 437.5 612.5 l 1
 500 612.5 l 1
 500 675 l 1
 562.5 675 l 1
 625 675 l 1
 687.5 675 l 1
 750 675 l 1
 750 612.5 l 1
 687.5 612.5 l 1
 687.5 550 l 1
 625 550 l 1
 625 487.5 l 1
 562.5 487.5 l 1
 500 487.5 l 1
 437.5 487.5 l 1
 375 487.5 l 1
EndSplineSet
Validated: 2621445
EndChar

StartChar: char56
Encoding: 76 76 25
Width: 875
VWidth: 0
Flags: HW
LayerCount: 2
Back
Fore
SplineSet
125 -200 m 1
 125 -137.5 l 1
 187.5 -137.5 l 1
 187.5 -75 l 1
 250 -75 l 1
 250 -12.5 l 1
 312.5 -12.5 l 1
 375 -12.5 l 1
 437.5 -12.5 l 1
 500 -12.5 l 1
 562.5 -12.5 l 1
 562.5 -75 l 1
 625 -75 l 1
 625 -137.5 l 1
 687.5 -137.5 l 1
 687.5 -200 l 1
 625 -200 l 1
 562.5 -200 l 1
 500 -200 l 1
 437.5 -200 l 1
 375 -200 l 1
 312.5 -200 l 1
 250 -200 l 1
 187.5 -200 l 1
 125 -200 l 1
62.5 -137.5 m 1
 62.5 -75 l 1
 62.5 -12.5 l 1
 62.5 50 l 1
 62.5 112.5 l 1
 62.5 175 l 1
 62.5 237.5 l 1
 62.5 300 l 1
 125 300 l 1
 187.5 300 l 1
 187.5 237.5 l 1
 250 237.5 l 1
 250 175 l 1
 250 112.5 l 1
 250 50 l 1
 250 -12.5 l 1
 187.5 -12.5 l 1
 187.5 -75 l 1
 125 -75 l 1
 125 -137.5 l 1
 62.5 -137.5 l 1
62.5 362.5 m 1
 62.5 425 l 1
 62.5 487.5 l 1
 62.5 550 l 1
 62.5 612.5 l 1
 62.5 675 l 1
 62.5 737.5 l 1
 125 737.5 l 1
 125 675 l 1
 187.5 675 l 1
 187.5 612.5 l 1
 250 612.5 l 1
 250 550 l 1
 250 487.5 l 1
 250 425 l 1
 187.5 425 l 1
 187.5 362.5 l 1
 125 362.5 l 1
 62.5 362.5 l 1
EndSplineSet
Validated: 2621445
EndChar

StartChar: char56
Encoding: 77 77 26
Width: 875
VWidth: 0
Flags: HW
LayerCount: 2
Back
Fore
SplineSet
62.5 -137.5 m 1
 62.5 -75 l 1
 62.5 -12.5 l 1
 62.5 50 l 1
 62.5 112.5 l 1
 62.5 175 l 1
 62.5 237.5 l 1
 62.5 300 l 1
 125 300 l 1
 187.5 300 l 1
 187.5 237.5 l 1
 250 237.5 l 1
 250 175 l 1
 250 112.5 l 1
 250 50 l 1
 250 -12.5 l 1
 187.5 -12.5 l 1
 187.5 -75 l 1
 125 -75 l 1
 125 -137.5 l 1
 62.5 -137.5 l 1
687.5 -137.5 m 1
 687.5 -75 l 1
 625 -75 l 1
 625 -12.5 l 1
 562.5 -12.5 l 1
 562.5 50 l 1
 562.5 112.5 l 1
 562.5 175 l 1
 562.5 237.5 l 1
 625 237.5 l 1
 625 300 l 1
 687.5 300 l 1
 750 300 l 1
 750 237.5 l 1
 750 175 l 1
 750 112.5 l 1
 750 50 l 1
 750 -12.5 l 1
 750 -75 l 1
 750 -137.5 l 1
 687.5 -137.5 l 1
312.5 50 m 1
 312.5 112.5 l 1
 312.5 175 l 1
 312.5 237.5 l 1
 375 237.5 l 1
 437.5 237.5 l 1
 500 237.5 l 1
 500 175 l 1
 500 112.5 l 1
 500 50 l 1
 437.5 50 l 1
 375 50 l 1
 312.5 50 l 1
62.5 362.5 m 1
 62.5 425 l 1
 62.5 487.5 l 1
 62.5 550 l 1
 62.5 612.5 l 1
 62.5 675 l 1
 62.5 737.5 l 1
 125 737.5 l 1
 125 675 l 1
 187.5 675 l 1
 187.5 612.5 l 1
 250 612.5 l 1
 250 550 l 1
 250 487.5 l 1
 250 425 l 1
 187.5 425 l 1
 187.5 362.5 l 1
 125 362.5 l 1
 62.5 362.5 l 1
625 362.5 m 1
 625 425 l 1
 562.5 425 l 1
 562.5 487.5 l 1
 562.5 550 l 1
 562.5 612.5 l 1
 625 612.5 l 1
 625 675 l 1
 687.5 675 l 1
 687.5 737.5 l 1
 750 737.5 l 1
 750 675 l 1
 750 612.5 l 1
 750 550 l 1
 750 487.5 l 1
 750 425 l 1
 750 362.5 l 1
 687.5 362.5 l 1
 625 362.5 l 1
312.5 425 m 1
 312.5 487.5 l 1
 312.5 550 l 1
 375 550 l 1
 437.5 550 l 1
 500 550 l 1
 500 487.5 l 1
 500 425 l 1
 437.5 425 l 1
 375 425 l 1
 312.5 425 l 1
250 612.5 m 1
 250 675 l 1
 187.5 675 l 1
 187.5 737.5 l 1
 125 737.5 l 1
 125 800 l 1
 187.5 800 l 1
 250 800 l 1
 312.5 800 l 1
 375 800 l 1
 437.5 800 l 1
 500 800 l 1
 562.5 800 l 1
 625 800 l 1
 687.5 800 l 1
 687.5 737.5 l 1
 625 737.5 l 1
 625 675 l 1
 562.5 675 l 1
 562.5 612.5 l 1
 500 612.5 l 1
 437.5 612.5 l 1
 375 612.5 l 1
 312.5 612.5 l 1
 250 612.5 l 1
EndSplineSet
Validated: 2621445
EndChar

StartChar: char56
Encoding: 78 78 27
Width: 875
VWidth: 0
Flags: HW
LayerCount: 2
Back
Fore
SplineSet
62.5 -137.5 m 1
 62.5 -75 l 1
 62.5 -12.5 l 1
 62.5 50 l 1
 62.5 112.5 l 1
 62.5 175 l 1
 62.5 237.5 l 1
 62.5 300 l 1
 125 300 l 1
 187.5 300 l 1
 187.5 237.5 l 1
 250 237.5 l 1
 250 175 l 1
 250 112.5 l 1
 250 50 l 1
 250 -12.5 l 1
 187.5 -12.5 l 1
 187.5 -75 l 1
 125 -75 l 1
 125 -137.5 l 1
 62.5 -137.5 l 1
687.5 -137.5 m 1
 687.5 -75 l 1
 625 -75 l 1
 625 -12.5 l 1
 562.5 -12.5 l 1
 562.5 50 l 1
 562.5 112.5 l 1
 562.5 175 l 1
 562.5 237.5 l 1
 625 237.5 l 1
 625 300 l 1
 687.5 300 l 1
 750 300 l 1
 750 237.5 l 1
 750 175 l 1
 750 112.5 l 1
 750 50 l 1
 750 -12.5 l 1
 750 -75 l 1
 750 -137.5 l 1
 687.5 -137.5 l 1
62.5 362.5 m 1
 62.5 425 l 1
 62.5 487.5 l 1
 62.5 550 l 1
 62.5 612.5 l 1
 62.5 675 l 1
 62.5 737.5 l 1
 125 737.5 l 1
 125 675 l 1
 187.5 675 l 1
 187.5 612.5 l 1
 250 612.5 l 1
 250 550 l 1
 250 487.5 l 1
 250 425 l 1
 187.5 425 l 1
 187.5 362.5 l 1
 125 362.5 l 1
 62.5 362.5 l 1
625 362.5 m 1
 625 425 l 1
 562.5 425 l 1
 562.5 487.5 l 1
 562.5 550 l 1
 562.5 612.5 l 1
 625 612.5 l 1
 625 675 l 1
 687.5 675 l 1
 687.5 737.5 l 1
 750 737.5 l 1
 750 675 l 1
 750 612.5 l 1
 750 550 l 1
 750 487.5 l 1
 750 425 l 1
 750 362.5 l 1
 687.5 362.5 l 1
 625 362.5 l 1
250 612.5 m 1
 250 675 l 1
 187.5 675 l 1
 187.5 737.5 l 1
 125 737.5 l 1
 125 800 l 1
 187.5 800 l 1
 250 800 l 1
 312.5 800 l 1
 375 800 l 1
 437.5 800 l 1
 500 800 l 1
 562.5 800 l 1
 625 800 l 1
 687.5 800 l 1
 687.5 737.5 l 1
 625 737.5 l 1
 625 675 l 1
 562.5 675 l 1
 562.5 612.5 l 1
 500 612.5 l 1
 437.5 612.5 l 1
 375 612.5 l 1
 312.5 612.5 l 1
 250 612.5 l 1
EndSplineSet
Validated: 2621445
EndChar

StartChar: char56
Encoding: 79 79 28
Width: 875
VWidth: 0
Flags: HW
LayerCount: 2
Back
Fore
SplineSet
125 -200 m 1
 125 -137.5 l 1
 187.5 -137.5 l 1
 187.5 -75 l 1
 250 -75 l 1
 250 -12.5 l 1
 312.5 -12.5 l 1
 375 -12.5 l 1
 437.5 -12.5 l 1
 500 -12.5 l 1
 562.5 -12.5 l 1
 562.5 -75 l 1
 625 -75 l 1
 625 -137.5 l 1
 687.5 -137.5 l 1
 687.5 -200 l 1
 625 -200 l 1
 562.5 -200 l 1
 500 -200 l 1
 437.5 -200 l 1
 375 -200 l 1
 312.5 -200 l 1
 250 -200 l 1
 187.5 -200 l 1
 125 -200 l 1
62.5 -137.5 m 1
 62.5 -75 l 1
 62.5 -12.5 l 1
 62.5 50 l 1
 62.5 112.5 l 1
 62.5 175 l 1
 62.5 237.5 l 1
 62.5 300 l 1
 125 300 l 1
 187.5 300 l 1
 187.5 237.5 l 1
 250 237.5 l 1
 250 175 l 1
 250 112.5 l 1
 250 50 l 1
 250 -12.5 l 1
 187.5 -12.5 l 1
 187.5 -75 l 1
 125 -75 l 1
 125 -137.5 l 1
 62.5 -137.5 l 1
687.5 -137.5 m 1
 687.5 -75 l 1
 625 -75 l 1
 625 -12.5 l 1
 562.5 -12.5 l 1
 562.5 50 l 1
 562.5 112.5 l 1
 562.5 175 l 1
 562.5 237.5 l 1
 625 237.5 l 1
 625 300 l 1
 687.5 300 l 1
 750 300 l 1
 750 237.5 l 1
 750 175 l 1
 750 112.5 l 1
 750 50 l 1
 750 -12.5 l 1
 750 -75 l 1
 750 -137.5 l 1
 687.5 -137.5 l 1
62.5 362.5 m 1
 62.5 425 l 1
 62.5 487.5 l 1
 62.5 550 l 1
 62.5 612.5 l 1
 62.5 675 l 1
 62.5 737.5 l 1
 125 737.5 l 1
 125 675 l 1
 187.5 675 l 1
 187.5 612.5 l 1
 250 612.5 l 1
 250 550 l 1
 250 487.5 l 1
 250 425 l 1
 187.5 425 l 1
 187.5 362.5 l 1
 125 362.5 l 1
 62.5 362.5 l 1
625 362.5 m 1
 625 425 l 1
 562.5 425 l 1
 562.5 487.5 l 1
 562.5 550 l 1
 562.5 612.5 l 1
 625 612.5 l 1
 625 675 l 1
 687.5 675 l 1
 687.5 737.5 l 1
 750 737.5 l 1
 750 675 l 1
 750 612.5 l 1
 750 550 l 1
 750 487.5 l 1
 750 425 l 1
 750 362.5 l 1
 687.5 362.5 l 1
 625 362.5 l 1
250 612.5 m 1
 250 675 l 1
 187.5 675 l 1
 187.5 737.5 l 1
 125 737.5 l 1
 125 800 l 1
 187.5 800 l 1
 250 800 l 1
 312.5 800 l 1
 375 800 l 1
 437.5 800 l 1
 500 800 l 1
 562.5 800 l 1
 625 800 l 1
 687.5 800 l 1
 687.5 737.5 l 1
 625 737.5 l 1
 625 675 l 1
 562.5 675 l 1
 562.5 612.5 l 1
 500 612.5 l 1
 437.5 612.5 l 1
 375 612.5 l 1
 312.5 612.5 l 1
 250 612.5 l 1
EndSplineSet
Validated: 2621445
EndChar

StartChar: char56
Encoding: 80 80 29
Width: 875
VWidth: 0
Flags: HW
LayerCount: 2
Back
Fore
SplineSet
62.5 -137.5 m 1
 62.5 -75 l 1
 62.5 -12.5 l 1
 62.5 50 l 1
 62.5 112.5 l 1
 62.5 175 l 1
 62.5 237.5 l 1
 62.5 300 l 1
 125 300 l 1
 187.5 300 l 1
 187.5 237.5 l 1
 250 237.5 l 1
 250 175 l 1
 250 112.5 l 1
 250 50 l 1
 250 -12.5 l 1
 187.5 -12.5 l 1
 187.5 -75 l 1
 125 -75 l 1
 125 -137.5 l 1
 62.5 -137.5 l 1
250 237.5 m 1
 250 300 l 1
 187.5 300 l 1
 187.5 362.5 l 1
 250 362.5 l 1
 250 425 l 1
 312.5 425 l 1
 375 425 l 1
 437.5 425 l 1
 500 425 l 1
 562.5 425 l 1
 562.5 362.5 l 1
 625 362.5 l 1
 625 300 l 1
 562.5 300 l 1
 562.5 237.5 l 1
 500 237.5 l 1
 437.5 237.5 l 1
 375 237.5 l 1
 312.5 237.5 l 1
 250 237.5 l 1
62.5 362.5 m 1
 62.5 425 l 1
 62.5 487.5 l 1
 62.5 550 l 1
 62.5 612.5 l 1
 62.5 675 l 1
 62.5 737.5 l 1
 125 737.5 l 1
 125 675 l 1
 187.5 675 l 1
 187.5 612.5 l 1
 250 612.5 l 1
 250 550 l 1
 250 487.5 l 1
 250 425 l 1
 187.5 425 l 1
 187.5 362.5 l 1
 125 362.5 l 1
 62.5 362.5 l 1
625 362.5 m 1
 625 425 l 1
 562.5 425 l 1
 562.5 487.5 l 1
 562.5 550 l 1
 562.5 612.5 l 1
 625 612.5 l 1
 625 675 l 1
 687.5 675 l 1
 687.5 737.5 l 1
 750 737.5 l 1
 750 675 l 1
 750 612.5 l 1
 750 550 l 1
 750 487.5 l 1
 750 425 l 1
 750 362.5 l 1
 687.5 362.5 l 1
 625 362.5 l 1
250 612.5 m 1
 250 675 l 1
 187.5 675 l 1
 187.5 737.5 l 1
 125 737.5 l 1
 125 800 l 1
 187.5 800 l 1
 250 800 l 1
 312.5 800 l 1
 375 800 l 1
 437.5 800 l 1
 500 800 l 1
 562.5 800 l 1
 625 800 l 1
 687.5 800 l 1
 687.5 737.5 l 1
 625 737.5 l 1
 625 675 l 1
 562.5 675 l 1
 562.5 612.5 l 1
 500 612.5 l 1
 437.5 612.5 l 1
 375 612.5 l 1
 312.5 612.5 l 1
 250 612.5 l 1
EndSplineSet
Validated: 2621445
EndChar

StartChar: char56
Encoding: 81 81 30
Width: 875
VWidth: 0
Flags: HW
LayerCount: 2
Back
Fore
SplineSet
125 -200 m 1
 125 -137.5 l 1
 187.5 -137.5 l 1
 187.5 -75 l 1
 250 -75 l 1
 250 -12.5 l 1
 312.5 -12.5 l 1
 375 -12.5 l 1
 437.5 -12.5 l 1
 500 -12.5 l 1
 562.5 -12.5 l 1
 562.5 -75 l 1
 625 -75 l 1
 625 -137.5 l 1
 687.5 -137.5 l 1
 687.5 -200 l 1
 625 -200 l 1
 562.5 -200 l 1
 500 -200 l 1
 437.5 -200 l 1
 375 -200 l 1
 312.5 -200 l 1
 250 -200 l 1
 187.5 -200 l 1
 125 -200 l 1
62.5 -137.5 m 1
 62.5 -75 l 1
 62.5 -12.5 l 1
 62.5 50 l 1
 62.5 112.5 l 1
 62.5 175 l 1
 62.5 237.5 l 1
 62.5 300 l 1
 125 300 l 1
 187.5 300 l 1
 187.5 237.5 l 1
 250 237.5 l 1
 250 175 l 1
 250 112.5 l 1
 250 50 l 1
 250 -12.5 l 1
 187.5 -12.5 l 1
 187.5 -75 l 1
 125 -75 l 1
 125 -137.5 l 1
 62.5 -137.5 l 1
687.5 -137.5 m 1
 687.5 -75 l 1
 625 -75 l 1
 625 -12.5 l 1
 562.5 -12.5 l 1
 562.5 50 l 1
 562.5 112.5 l 1
 562.5 175 l 1
 562.5 237.5 l 1
 625 237.5 l 1
 625 300 l 1
 687.5 300 l 1
 750 300 l 1
 750 237.5 l 1
 750 175 l 1
 750 112.5 l 1
 750 50 l 1
 750 -12.5 l 1
 750 -75 l 1
 750 -137.5 l 1
 687.5 -137.5 l 1
312.5 50 m 1
 312.5 112.5 l 1
 312.5 175 l 1
 312.5 237.5 l 1
 375 237.5 l 1
 437.5 237.5 l 1
 500 237.5 l 1
 500 175 l 1
 500 112.5 l 1
 500 50 l 1
 437.5 50 l 1
 375 50 l 1
 312.5 50 l 1
62.5 362.5 m 1
 62.5 425 l 1
 62.5 487.5 l 1
 62.5 550 l 1
 62.5 612.5 l 1
 62.5 675 l 1
 62.5 737.5 l 1
 125 737.5 l 1
 125 675 l 1
 187.5 675 l 1
 187.5 612.5 l 1
 250 612.5 l 1
 250 550 l 1
 250 487.5 l 1
 250 425 l 1
 187.5 425 l 1
 187.5 362.5 l 1
 125 362.5 l 1
 62.5 362.5 l 1
625 362.5 m 1
 625 425 l 1
 562.5 425 l 1
 562.5 487.5 l 1
 562.5 550 l 1
 562.5 612.5 l 1
 625 612.5 l 1
 625 675 l 1
 687.5 675 l 1
 687.5 737.5 l 1
 750 737.5 l 1
 750 675 l 1
 750 612.5 l 1
 750 550 l 1
 750 487.5 l 1
 750 425 l 1
 750 362.5 l 1
 687.5 362.5 l 1
 625 362.5 l 1
250 612.5 m 1
 250 675 l 1
 187.5 675 l 1
 187.5 737.5 l 1
 125 737.5 l 1
 125 800 l 1
 187.5 800 l 1
 250 800 l 1
 312.5 800 l 1
 375 800 l 1
 437.5 800 l 1
 500 800 l 1
 562.5 800 l 1
 625 800 l 1
 687.5 800 l 1
 687.5 737.5 l 1
 625 737.5 l 1
 625 675 l 1
 562.5 675 l 1
 562.5 612.5 l 1
 500 612.5 l 1
 437.5 612.5 l 1
 375 612.5 l 1
 312.5 612.5 l 1
 250 612.5 l 1
EndSplineSet
Validated: 2621445
EndChar

StartChar: char56
Encoding: 82 82 31
Width: 875
VWidth: 0
Flags: HW
LayerCount: 2
Back
Fore
SplineSet
62.5 -137.5 m 1
 62.5 -75 l 1
 62.5 -12.5 l 1
 62.5 50 l 1
 62.5 112.5 l 1
 62.5 175 l 1
 62.5 237.5 l 1
 62.5 300 l 1
 125 300 l 1
 187.5 300 l 1
 187.5 237.5 l 1
 250 237.5 l 1
 250 175 l 1
 250 112.5 l 1
 250 50 l 1
 250 -12.5 l 1
 187.5 -12.5 l 1
 187.5 -75 l 1
 125 -75 l 1
 125 -137.5 l 1
 62.5 -137.5 l 1
62.5 362.5 m 1
 62.5 425 l 1
 62.5 487.5 l 1
 62.5 550 l 1
 62.5 612.5 l 1
 62.5 675 l 1
 62.5 737.5 l 1
 125 737.5 l 1
 125 675 l 1
 187.5 675 l 1
 187.5 612.5 l 1
 250 612.5 l 1
 250 550 l 1
 250 487.5 l 1
 250 425 l 1
 187.5 425 l 1
 187.5 362.5 l 1
 125 362.5 l 1
 62.5 362.5 l 1
625 362.5 m 1
 625 425 l 1
 562.5 425 l 1
 562.5 487.5 l 1
 562.5 550 l 1
 562.5 612.5 l 1
 625 612.5 l 1
 625 675 l 1
 687.5 675 l 1
 687.5 737.5 l 1
 750 737.5 l 1
 750 675 l 1
 750 612.5 l 1
 750 550 l 1
 750 487.5 l 1
 750 425 l 1
 750 362.5 l 1
 687.5 362.5 l 1
 625 362.5 l 1
250 612.5 m 1
 250 675 l 1
 187.5 675 l 1
 187.5 737.5 l 1
 125 737.5 l 1
 125 800 l 1
 187.5 800 l 1
 250 800 l 1
 312.5 800 l 1
 375 800 l 1
 437.5 800 l 1
 500 800 l 1
 562.5 800 l 1
 625 800 l 1
 687.5 800 l 1
 687.5 737.5 l 1
 625 737.5 l 1
 625 675 l 1
 562.5 675 l 1
 562.5 612.5 l 1
 500 612.5 l 1
 437.5 612.5 l 1
 375 612.5 l 1
 312.5 612.5 l 1
 250 612.5 l 1
EndSplineSet
Validated: 2621445
EndChar

StartChar: char56
Encoding: 83 83 32
Width: 875
VWidth: 0
Flags: HW
LayerCount: 2
Back
Fore
SplineSet
125 -200 m 1
 125 -137.5 l 1
 187.5 -137.5 l 1
 187.5 -75 l 1
 250 -75 l 1
 250 -12.5 l 1
 312.5 -12.5 l 1
 375 -12.5 l 1
 437.5 -12.5 l 1
 500 -12.5 l 1
 562.5 -12.5 l 1
 562.5 -75 l 1
 625 -75 l 1
 625 -137.5 l 1
 687.5 -137.5 l 1
 687.5 -200 l 1
 625 -200 l 1
 562.5 -200 l 1
 500 -200 l 1
 437.5 -200 l 1
 375 -200 l 1
 312.5 -200 l 1
 250 -200 l 1
 187.5 -200 l 1
 125 -200 l 1
687.5 -137.5 m 1
 687.5 -75 l 1
 625 -75 l 1
 625 -12.5 l 1
 562.5 -12.5 l 1
 562.5 50 l 1
 562.5 112.5 l 1
 562.5 175 l 1
 562.5 237.5 l 1
 625 237.5 l 1
 625 300 l 1
 687.5 300 l 1
 750 300 l 1
 750 237.5 l 1
 750 175 l 1
 750 112.5 l 1
 750 50 l 1
 750 -12.5 l 1
 750 -75 l 1
 750 -137.5 l 1
 687.5 -137.5 l 1
250 237.5 m 1
 250 300 l 1
 187.5 300 l 1
 187.5 362.5 l 1
 250 362.5 l 1
 250 425 l 1
 312.5 425 l 1
 375 425 l 1
 437.5 425 l 1
 500 425 l 1
 562.5 425 l 1
 562.5 362.5 l 1
 625 362.5 l 1
 625 300 l 1
 562.5 300 l 1
 562.5 237.5 l 1
 500 237.5 l 1
 437.5 237.5 l 1
 375 237.5 l 1
 312.5 237.5 l 1
 250 237.5 l 1
62.5 362.5 m 1
 62.5 425 l 1
 62.5 487.5 l 1
 62.5 550 l 1
 62.5 612.5 l 1
 62.5 675 l 1
 62.5 737.5 l 1
 125 737.5 l 1
 125 675 l 1
 187.5 675 l 1
 187.5 612.5 l 1
 250 612.5 l 1
 250 550 l 1
 250 487.5 l 1
 250 425 l 1
 187.5 425 l 1
 187.5 362.5 l 1
 125 362.5 l 1
 62.5 362.5 l 1
250 612.5 m 1
 250 675 l 1
 187.5 675 l 1
 187.5 737.5 l 1
 125 737.5 l 1
 125 800 l 1
 187.5 800 l 1
 250 800 l 1
 312.5 800 l 1
 375 800 l 1
 437.5 800 l 1
 500 800 l 1
 562.5 800 l 1
 625 800 l 1
 687.5 800 l 1
 687.5 737.5 l 1
 625 737.5 l 1
 625 675 l 1
 562.5 675 l 1
 562.5 612.5 l 1
 500 612.5 l 1
 437.5 612.5 l 1
 375 612.5 l 1
 312.5 612.5 l 1
 250 612.5 l 1
EndSplineSet
Validated: 2621445
EndChar

StartChar: char56
Encoding: 84 84 33
Width: 875
VWidth: 0
Flags: HW
LayerCount: 2
Back
Fore
SplineSet
125 -200 m 1
 125 -137.5 l 1
 187.5 -137.5 l 1
 187.5 -75 l 1
 250 -75 l 1
 250 -12.5 l 1
 312.5 -12.5 l 1
 375 -12.5 l 1
 437.5 -12.5 l 1
 500 -12.5 l 1
 562.5 -12.5 l 1
 562.5 -75 l 1
 625 -75 l 1
 625 -137.5 l 1
 687.5 -137.5 l 1
 687.5 -200 l 1
 625 -200 l 1
 562.5 -200 l 1
 500 -200 l 1
 437.5 -200 l 1
 375 -200 l 1
 312.5 -200 l 1
 250 -200 l 1
 187.5 -200 l 1
 125 -200 l 1
62.5 -137.5 m 1
 62.5 -75 l 1
 62.5 -12.5 l 1
 62.5 50 l 1
 62.5 112.5 l 1
 62.5 175 l 1
 62.5 237.5 l 1
 62.5 300 l 1
 125 300 l 1
 187.5 300 l 1
 187.5 237.5 l 1
 250 237.5 l 1
 250 175 l 1
 250 112.5 l 1
 250 50 l 1
 250 -12.5 l 1
 187.5 -12.5 l 1
 187.5 -75 l 1
 125 -75 l 1
 125 -137.5 l 1
 62.5 -137.5 l 1
250 237.5 m 1
 250 300 l 1
 187.5 300 l 1
 187.5 362.5 l 1
 250 362.5 l 1
 250 425 l 1
 312.5 425 l 1
 375 425 l 1
 437.5 425 l 1
 500 425 l 1
 562.5 425 l 1
 562.5 362.5 l 1
 625 362.5 l 1
 625 300 l 1
 562.5 300 l 1
 562.5 237.5 l 1
 500 237.5 l 1
 437.5 237.5 l 1
 375 237.5 l 1
 312.5 237.5 l 1
 250 237.5 l 1
62.5 362.5 m 1
 62.5 425 l 1
 62.5 487.5 l 1
 62.5 550 l 1
 62.5 612.5 l 1
 62.5 675 l 1
 62.5 737.5 l 1
 125 737.5 l 1
 125 675 l 1
 187.5 675 l 1
 187.5 612.5 l 1
 250 612.5 l 1
 250 550 l 1
 250 487.5 l 1
 250 425 l 1
 187.5 425 l 1
 187.5 362.5 l 1
 125 362.5 l 1
 62.5 362.5 l 1
EndSplineSet
Validated: 2621445
EndChar

StartChar: char56
Encoding: 85 85 34
Width: 875
VWidth: 0
Flags: HW
LayerCount: 2
Back
Fore
SplineSet
125 -200 m 1
 125 -137.5 l 1
 187.5 -137.5 l 1
 187.5 -75 l 1
 250 -75 l 1
 250 -12.5 l 1
 312.5 -12.5 l 1
 375 -12.5 l 1
 437.5 -12.5 l 1
 500 -12.5 l 1
 562.5 -12.5 l 1
 562.5 -75 l 1
 625 -75 l 1
 625 -137.5 l 1
 687.5 -137.5 l 1
 687.5 -200 l 1
 625 -200 l 1
 562.5 -200 l 1
 500 -200 l 1
 437.5 -200 l 1
 375 -200 l 1
 312.5 -200 l 1
 250 -200 l 1
 187.5 -200 l 1
 125 -200 l 1
62.5 -137.5 m 1
 62.5 -75 l 1
 62.5 -12.5 l 1
 62.5 50 l 1
 62.5 112.5 l 1
 62.5 175 l 1
 62.5 237.5 l 1
 62.5 300 l 1
 125 300 l 1
 187.5 300 l 1
 187.5 237.5 l 1
 250 237.5 l 1
 250 175 l 1
 250 112.5 l 1
 250 50 l 1
 250 -12.5 l 1
 187.5 -12.5 l 1
 187.5 -75 l 1
 125 -75 l 1
 125 -137.5 l 1
 62.5 -137.5 l 1
687.5 -137.5 m 1
 687.5 -75 l 1
 625 -75 l 1
 625 -12.5 l 1
 562.5 -12.5 l 1
 562.5 50 l 1
 562.5 112.5 l 1
 562.5 175 l 1
 562.5 237.5 l 1
 625 237.5 l 1
 625 300 l 1
 687.5 300 l 1
 750 300 l 1
 750 237.5 l 1
 750 175 l 1
 750 112.5 l 1
 750 50 l 1
 750 -12.5 l 1
 750 -75 l 1
 750 -137.5 l 1
 687.5 -137.5 l 1
62.5 362.5 m 1
 62.5 425 l 1
 62.5 487.5 l 1
 62.5 550 l 1
 62.5 612.5 l 1
 62.5 675 l 1
 62.5 737.5 l 1
 125 737.5 l 1
 125 675 l 1
 187.5 675 l 1
 187.5 612.5 l 1
 250 612.5 l 1
 250 550 l 1
 250 487.5 l 1
 250 425 l 1
 187.5 425 l 1
 187.5 362.5 l 1
 125 362.5 l 1
 62.5 362.5 l 1
625 362.5 m 1
 625 425 l 1
 562.5 425 l 1
 562.5 487.5 l 1
 562.5 550 l 1
 562.5 612.5 l 1
 625 612.5 l 1
 625 675 l 1
 687.5 675 l 1
 687.5 737.5 l 1
 750 737.5 l 1
 750 675 l 1
 750 612.5 l 1
 750 550 l 1
 750 487.5 l 1
 750 425 l 1
 750 362.5 l 1
 687.5 362.5 l 1
 625 362.5 l 1
EndSplineSet
Validated: 2621445
EndChar

StartChar: char56
Encoding: 86 86 35
Width: 875
VWidth: 0
Flags: HW
LayerCount: 2
Back
Fore
SplineSet
62.5 -137.5 m 1
 62.5 -75 l 1
 62.5 -12.5 l 1
 62.5 50 l 1
 62.5 112.5 l 1
 62.5 175 l 1
 62.5 237.5 l 1
 62.5 300 l 1
 125 300 l 1
 187.5 300 l 1
 187.5 237.5 l 1
 250 237.5 l 1
 250 175 l 1
 250 112.5 l 1
 250 50 l 1
 250 -12.5 l 1
 187.5 -12.5 l 1
 187.5 -75 l 1
 125 -75 l 1
 125 -137.5 l 1
 62.5 -137.5 l 1
312.5 -75 m 1
 312.5 -12.5 l 1
 312.5 50 l 1
 312.5 112.5 l 1
 312.5 175 l 1
 375 175 l 1
 375 237.5 l 1
 437.5 237.5 l 1
 437.5 300 l 1
 500 300 l 1
 500 362.5 l 1
 562.5 362.5 l 1
 625 362.5 l 1
 625 300 l 1
 687.5 300 l 1
 687.5 237.5 l 1
 625 237.5 l 1
 625 175 l 1
 562.5 175 l 1
 562.5 112.5 l 1
 500 112.5 l 1
 500 50 l 1
 437.5 50 l 1
 437.5 -12.5 l 1
 375 -12.5 l 1
 375 -75 l 1
 312.5 -75 l 1
62.5 362.5 m 1
 62.5 425 l 1
 62.5 487.5 l 1
 62.5 550 l 1
 62.5 612.5 l 1
 62.5 675 l 1
 62.5 737.5 l 1
 125 737.5 l 1
 125 675 l 1
 187.5 675 l 1
 187.5 612.5 l 1
 250 612.5 l 1
 250 550 l 1
 250 487.5 l 1
 250 425 l 1
 187.5 425 l 1
 187.5 362.5 l 1
 125 362.5 l 1
 62.5 362.5 l 1
625 362.5 m 1
 625 425 l 1
 562.5 425 l 1
 562.5 487.5 l 1
 562.5 550 l 1
 562.5 612.5 l 1
 625 612.5 l 1
 625 675 l 1
 687.5 675 l 1
 687.5 737.5 l 1
 750 737.5 l 1
 750 675 l 1
 750 612.5 l 1
 750 550 l 1
 750 487.5 l 1
 750 425 l 1
 750 362.5 l 1
 687.5 362.5 l 1
 625 362.5 l 1
EndSplineSet
Validated: 2621445
EndChar

StartChar: char56
Encoding: 87 87 36
Width: 875
VWidth: 0
Flags: HW
LayerCount: 2
Back
Fore
SplineSet
125 -200 m 1
 125 -137.5 l 1
 187.5 -137.5 l 1
 187.5 -75 l 1
 250 -75 l 1
 250 -12.5 l 1
 312.5 -12.5 l 1
 375 -12.5 l 1
 437.5 -12.5 l 1
 500 -12.5 l 1
 562.5 -12.5 l 1
 562.5 -75 l 1
 625 -75 l 1
 625 -137.5 l 1
 687.5 -137.5 l 1
 687.5 -200 l 1
 625 -200 l 1
 562.5 -200 l 1
 500 -200 l 1
 437.5 -200 l 1
 375 -200 l 1
 312.5 -200 l 1
 250 -200 l 1
 187.5 -200 l 1
 125 -200 l 1
62.5 -137.5 m 1
 62.5 -75 l 1
 62.5 -12.5 l 1
 62.5 50 l 1
 62.5 112.5 l 1
 62.5 175 l 1
 62.5 237.5 l 1
 62.5 300 l 1
 125 300 l 1
 187.5 300 l 1
 187.5 237.5 l 1
 250 237.5 l 1
 250 175 l 1
 250 112.5 l 1
 250 50 l 1
 250 -12.5 l 1
 187.5 -12.5 l 1
 187.5 -75 l 1
 125 -75 l 1
 125 -137.5 l 1
 62.5 -137.5 l 1
687.5 -137.5 m 1
 687.5 -75 l 1
 625 -75 l 1
 625 -12.5 l 1
 562.5 -12.5 l 1
 562.5 50 l 1
 562.5 112.5 l 1
 562.5 175 l 1
 562.5 237.5 l 1
 625 237.5 l 1
 625 300 l 1
 687.5 300 l 1
 750 300 l 1
 750 237.5 l 1
 750 175 l 1
 750 112.5 l 1
 750 50 l 1
 750 -12.5 l 1
 750 -75 l 1
 750 -137.5 l 1
 687.5 -137.5 l 1
312.5 50 m 1
 312.5 112.5 l 1
 312.5 175 l 1
 312.5 237.5 l 1
 375 237.5 l 1
 437.5 237.5 l 1
 500 237.5 l 1
 500 175 l 1
 500 112.5 l 1
 500 50 l 1
 437.5 50 l 1
 375 50 l 1
 312.5 50 l 1
62.5 362.5 m 1
 62.5 425 l 1
 62.5 487.5 l 1
 62.5 550 l 1
 62.5 612.5 l 1
 62.5 675 l 1
 62.5 737.5 l 1
 125 737.5 l 1
 125 675 l 1
 187.5 675 l 1
 187.5 612.5 l 1
 250 612.5 l 1
 250 550 l 1
 250 487.5 l 1
 250 425 l 1
 187.5 425 l 1
 187.5 362.5 l 1
 125 362.5 l 1
 62.5 362.5 l 1
625 362.5 m 1
 625 425 l 1
 562.5 425 l 1
 562.5 487.5 l 1
 562.5 550 l 1
 562.5 612.5 l 1
 625 612.5 l 1
 625 675 l 1
 687.5 675 l 1
 687.5 737.5 l 1
 750 737.5 l 1
 750 675 l 1
 750 612.5 l 1
 750 550 l 1
 750 487.5 l 1
 750 425 l 1
 750 362.5 l 1
 687.5 362.5 l 1
 625 362.5 l 1
312.5 425 m 1
 312.5 487.5 l 1
 312.5 550 l 1
 375 550 l 1
 437.5 550 l 1
 500 550 l 1
 500 487.5 l 1
 500 425 l 1
 437.5 425 l 1
 375 425 l 1
 312.5 425 l 1
EndSplineSet
Validated: 2621445
EndChar

StartChar: char56
Encoding: 88 88 37
Width: 875
VWidth: 0
Flags: HW
LayerCount: 2
Back
Fore
SplineSet
62.5 -137.5 m 1
 62.5 -75 l 1
 62.5 -12.5 l 1
 62.5 50 l 1
 62.5 112.5 l 1
 125 112.5 l 1
 125 175 l 1
 187.5 175 l 1
 187.5 237.5 l 1
 250 237.5 l 1
 250 300 l 1
 312.5 300 l 1
 375 300 l 1
 375 237.5 l 1
 375 175 l 1
 375 112.5 l 1
 312.5 112.5 l 1
 312.5 50 l 1
 250 50 l 1
 250 -12.5 l 1
 187.5 -12.5 l 1
 187.5 -75 l 1
 125 -75 l 1
 125 -137.5 l 1
 62.5 -137.5 l 1
687.5 -137.5 m 1
 687.5 -75 l 1
 625 -75 l 1
 625 -12.5 l 1
 562.5 -12.5 l 1
 562.5 50 l 1
 500 50 l 1
 500 112.5 l 1
 437.5 112.5 l 1
 437.5 175 l 1
 437.5 237.5 l 1
 437.5 300 l 1
 500 300 l 1
 562.5 300 l 1
 562.5 237.5 l 1
 625 237.5 l 1
 625 175 l 1
 687.5 175 l 1
 687.5 112.5 l 1
 750 112.5 l 1
 750 50 l 1
 750 -12.5 l 1
 750 -75 l 1
 750 -137.5 l 1
 687.5 -137.5 l 1
187.5 362.5 m 1
 187.5 425 l 1
 125 425 l 1
 125 487.5 l 1
 62.5 487.5 l 1
 62.5 550 l 1
 62.5 612.5 l 1
 62.5 675 l 1
 62.5 737.5 l 1
 125 737.5 l 1
 125 675 l 1
 187.5 675 l 1
 187.5 612.5 l 1
 250 612.5 l 1
 250 550 l 1
 312.5 550 l 1
 312.5 487.5 l 1
 375 487.5 l 1
 375 425 l 1
 375 362.5 l 1
 312.5 362.5 l 1
 250 362.5 l 1
 187.5 362.5 l 1
437.5 362.5 m 1
 437.5 425 l 1
 437.5 487.5 l 1
 500 487.5 l 1
 500 550 l 1
 562.5 550 l 1
 562.5 612.5 l 1
 625 612.5 l 1
 625 675 l 1
 687.5 675 l 1
 687.5 737.5 l 1
 750 737.5 l 1
 750 675 l 1
 750 612.5 l 1
 750 550 l 1
 750 487.5 l 1
 687.5 487.5 l 1
 687.5 425 l 1
 625 425 l 1
 625 362.5 l 1
 562.5 362.5 l 1
 500 362.5 l 1
 437.5 362.5 l 1
EndSplineSet
Validated: 2621441
EndChar

StartChar: char56
Encoding: 89 89 38
Width: 875
VWidth: 0
Flags: HW
LayerCount: 2
Back
Fore
SplineSet
125 -200 m 1
 125 -137.5 l 1
 187.5 -137.5 l 1
 187.5 -75 l 1
 250 -75 l 1
 250 -12.5 l 1
 312.5 -12.5 l 1
 375 -12.5 l 1
 437.5 -12.5 l 1
 500 -12.5 l 1
 562.5 -12.5 l 1
 562.5 -75 l 1
 625 -75 l 1
 625 -137.5 l 1
 687.5 -137.5 l 1
 687.5 -200 l 1
 625 -200 l 1
 562.5 -200 l 1
 500 -200 l 1
 437.5 -200 l 1
 375 -200 l 1
 312.5 -200 l 1
 250 -200 l 1
 187.5 -200 l 1
 125 -200 l 1
687.5 -137.5 m 1
 687.5 -75 l 1
 625 -75 l 1
 625 -12.5 l 1
 562.5 -12.5 l 1
 562.5 50 l 1
 562.5 112.5 l 1
 562.5 175 l 1
 562.5 237.5 l 1
 625 237.5 l 1
 625 300 l 1
 687.5 300 l 1
 750 300 l 1
 750 237.5 l 1
 750 175 l 1
 750 112.5 l 1
 750 50 l 1
 750 -12.5 l 1
 750 -75 l 1
 750 -137.5 l 1
 687.5 -137.5 l 1
250 237.5 m 1
 250 300 l 1
 187.5 300 l 1
 187.5 362.5 l 1
 250 362.5 l 1
 250 425 l 1
 312.5 425 l 1
 375 425 l 1
 437.5 425 l 1
 500 425 l 1
 562.5 425 l 1
 562.5 362.5 l 1
 625 362.5 l 1
 625 300 l 1
 562.5 300 l 1
 562.5 237.5 l 1
 500 237.5 l 1
 437.5 237.5 l 1
 375 237.5 l 1
 312.5 237.5 l 1
 250 237.5 l 1
62.5 362.5 m 1
 62.5 425 l 1
 62.5 487.5 l 1
 62.5 550 l 1
 62.5 612.5 l 1
 62.5 675 l 1
 62.5 737.5 l 1
 125 737.5 l 1
 125 675 l 1
 187.5 675 l 1
 187.5 612.5 l 1
 250 612.5 l 1
 250 550 l 1
 250 487.5 l 1
 250 425 l 1
 187.5 425 l 1
 187.5 362.5 l 1
 125 362.5 l 1
 62.5 362.5 l 1
625 362.5 m 1
 625 425 l 1
 562.5 425 l 1
 562.5 487.5 l 1
 562.5 550 l 1
 562.5 612.5 l 1
 625 612.5 l 1
 625 675 l 1
 687.5 675 l 1
 687.5 737.5 l 1
 750 737.5 l 1
 750 675 l 1
 750 612.5 l 1
 750 550 l 1
 750 487.5 l 1
 750 425 l 1
 750 362.5 l 1
 687.5 362.5 l 1
 625 362.5 l 1
EndSplineSet
Validated: 2621445
EndChar

StartChar: char56
Encoding: 90 90 39
Width: 875
VWidth: 0
Flags: HW
LayerCount: 2
Back
Fore
SplineSet
125 -200 m 1
 125 -137.5 l 1
 187.5 -137.5 l 1
 187.5 -75 l 1
 250 -75 l 1
 250 -12.5 l 1
 312.5 -12.5 l 1
 375 -12.5 l 1
 437.5 -12.5 l 1
 500 -12.5 l 1
 562.5 -12.5 l 1
 562.5 -75 l 1
 625 -75 l 1
 625 -137.5 l 1
 687.5 -137.5 l 1
 687.5 -200 l 1
 625 -200 l 1
 562.5 -200 l 1
 500 -200 l 1
 437.5 -200 l 1
 375 -200 l 1
 312.5 -200 l 1
 250 -200 l 1
 187.5 -200 l 1
 125 -200 l 1
62.5 -137.5 m 1
 62.5 -75 l 1
 62.5 -12.5 l 1
 62.5 50 l 1
 62.5 112.5 l 1
 125 112.5 l 1
 125 175 l 1
 187.5 175 l 1
 187.5 237.5 l 1
 250 237.5 l 1
 250 300 l 1
 312.5 300 l 1
 312.5 362.5 l 1
 375 362.5 l 1
 375 300 l 1
 375 237.5 l 1
 375 175 l 1
 375 112.5 l 1
 312.5 112.5 l 1
 312.5 50 l 1
 250 50 l 1
 250 -12.5 l 1
 187.5 -12.5 l 1
 187.5 -75 l 1
 125 -75 l 1
 125 -137.5 l 1
 62.5 -137.5 l 1
437.5 237.5 m 1
 437.5 300 l 1
 437.5 362.5 l 1
 437.5 425 l 1
 437.5 487.5 l 1
 500 487.5 l 1
 500 550 l 1
 562.5 550 l 1
 562.5 612.5 l 1
 625 612.5 l 1
 625 675 l 1
 687.5 675 l 1
 687.5 737.5 l 1
 750 737.5 l 1
 750 675 l 1
 750 612.5 l 1
 750 550 l 1
 750 487.5 l 1
 687.5 487.5 l 1
 687.5 425 l 1
 625 425 l 1
 625 362.5 l 1
 562.5 362.5 l 1
 562.5 300 l 1
 500 300 l 1
 500 237.5 l 1
 437.5 237.5 l 1
250 612.5 m 1
 250 675 l 1
 187.5 675 l 1
 187.5 737.5 l 1
 125 737.5 l 1
 125 800 l 1
 187.5 800 l 1
 250 800 l 1
 312.5 800 l 1
 375 800 l 1
 437.5 800 l 1
 500 800 l 1
 562.5 800 l 1
 625 800 l 1
 687.5 800 l 1
 687.5 737.5 l 1
 625 737.5 l 1
 625 675 l 1
 562.5 675 l 1
 562.5 612.5 l 1
 500 612.5 l 1
 437.5 612.5 l 1
 375 612.5 l 1
 312.5 612.5 l 1
 250 612.5 l 1
EndSplineSet
Validated: 2621445
EndChar

